<svg width="40" height="45" viewBox="0 0 40 45" fill="none" xmlns="http://www.w3.org/2000/svg">
<path d="M2.15 38.0993L0 35.9415L8.7 27.2097C9.8 26.1057 10.5833 24.7257 11.05 23.0697C11.5167 21.4137 11.75 19.0969 11.75 16.1194C11.75 14.2125 12.1667 12.339 13 10.499C13.8333 8.65894 15.1 6.88583 16.8 5.17962C19.7333 2.23558 22.95 0.562833 26.45 0.161373C29.95 -0.240086 32.8333 0.696653 35.1 2.97159C37.3667 5.24653 38.3 8.15711 37.9 11.7033C37.5 15.2496 35.8333 18.4947 32.9 21.4387C31.2 23.145 29.4333 24.3995 27.6 25.2024C25.7667 26.0054 23.9 26.4068 22 26.4068C19.0333 26.4068 16.7083 26.6243 15.025 27.0592C13.3417 27.4941 11.95 28.2636 10.85 29.3676L2.15 38.0993ZM16.65 21.4387C18.2833 23.078 20.5 23.6886 23.3 23.2704C26.1 22.8522 28.6167 21.5224 30.85 19.2809C33.0833 17.0394 34.4167 14.5387 34.85 11.7786C35.2833 9.01858 34.6833 6.81892 33.05 5.17962C31.4167 3.54033 29.2083 2.92977 26.425 3.34796C23.6417 3.76615 21.1333 5.09598 18.9 7.33747C16.6667 9.57895 15.325 12.0797 14.875 14.8397C14.425 17.5998 15.0167 19.7995 16.65 21.4387ZM32.8 44.071C30.8 44.071 29.1 43.3685 27.7 41.9634C26.3 40.5583 25.6 38.8521 25.6 36.8448C25.6 34.8375 26.3 33.1313 27.7 31.7262C29.1 30.321 30.8 29.6185 32.8 29.6185C34.8 29.6185 36.5 30.321 37.9 31.7262C39.3 33.1313 40 34.8375 40 36.8448C40 38.8521 39.3 40.5583 37.9 41.9634C36.5 43.3685 34.8 44.071 32.8 44.071ZM32.8 41.0601C34 41.0601 35 40.6586 35.8 39.8557C36.6 39.0528 37 38.0491 37 36.8448C37 35.6404 36.6 34.6367 35.8 33.8338C35 33.0309 34 32.6294 32.8 32.6294C31.6 32.6294 30.6 33.0309 29.8 33.8338C29 34.6367 28.6 35.6404 28.6 36.8448C28.6 38.0491 29 39.0528 29.8 39.8557C30.6 40.6586 31.6 41.0601 32.8 41.0601Z" fill="#858585"/>
</svg>
