<svg width="40" height="40" viewBox="0 0 40 40" fill="none" xmlns="http://www.w3.org/2000/svg">
<path d="M36.3 15.05C35.3333 11.8167 33.525 9.09167 30.875 6.875C28.225 4.65833 25.1 3.38333 21.5 3.05V6.5L36.3 15.05ZM10.85 23.4L18.5 18.9V3.05C17.1333 3.21667 15.8083 3.5 14.525 3.9C13.2417 4.3 12.0167 4.88333 10.85 5.65V23.4ZM4.55 27.15L7.85 25.2V8.05C6.28333 9.65 5.08333 11.4917 4.25 13.575C3.41667 15.6583 3 17.8 3 20C3 21.3 3.13333 22.525 3.4 23.675C3.66667 24.825 4.05 25.9833 4.55 27.15V27.15ZM12.2 35.15L27.85 26.1L20 21.5L6 29.75C6.8 30.85 7.725 31.875 8.775 32.825C9.825 33.775 10.9667 34.55 12.2 35.15V35.15ZM20 37C22.8667 37 25.5167 36.3583 27.95 35.075C30.3833 33.7917 32.4 32.0167 34 29.75L30.75 27.85L15.9 36.5C16.5667 36.6667 17.25 36.7917 17.95 36.875C18.65 36.9583 19.3333 37 20 37ZM35.45 27.1C36.05 25.8333 36.4667 24.55 36.7 23.25C36.9333 21.95 37.0333 20.5667 37 19.1L21.5 10.05V18.9L35.45 27.1ZM20 40C17.2333 40 14.6333 39.475 12.2 38.425C9.76667 37.375 7.65 35.95 5.85 34.15C4.05 32.35 2.625 30.2333 1.575 27.8C0.525 25.3667 0 22.7667 0 20C0 17.2333 0.525 14.6333 1.575 12.2C2.625 9.76667 4.05 7.65 5.85 5.85C7.65 4.05 9.76667 2.625 12.2 1.575C14.6333 0.525 17.2333 0 20 0C22.7667 0 25.3667 0.525 27.8 1.575C30.2333 2.625 32.35 4.05 34.15 5.85C35.95 7.65 37.375 9.76667 38.425 12.2C39.475 14.6333 40 17.2333 40 20C40 22.7667 39.475 25.3667 38.425 27.8C37.375 30.2333 35.95 32.35 34.15 34.15C32.35 35.95 30.2333 37.375 27.8 38.425C25.3667 39.475 22.7667 40 20 40Z" fill="#858585"/>
</svg>
