<svg width="40" height="40" viewBox="0 0 40 40" fill="none" xmlns="http://www.w3.org/2000/svg">
<path d="M3.05 18.5H9.9C9.66667 16.9 9.2 15.3917 8.5 13.975C7.8 12.5583 6.93333 11.3333 5.9 10.3C5.13333 11.4667 4.48333 12.7333 3.95 14.1C3.41667 15.4667 3.11667 16.9333 3.05 18.5ZM30.1 18.5H36.95C36.8833 16.9333 36.5833 15.4667 36.05 14.1C35.5167 12.7333 34.8667 11.4667 34.1 10.3C32.9667 11.4333 32.075 12.6833 31.425 14.05C30.775 15.4167 30.3333 16.9 30.1 18.5ZM5.9 29.65C7.03333 28.5167 7.925 27.275 8.575 25.925C9.225 24.575 9.66667 23.1 9.9 21.5H3.05C3.11667 23.0667 3.41667 24.525 3.95 25.875C4.48333 27.225 5.13333 28.4833 5.9 29.65ZM34.1 29.65C34.8667 28.4833 35.5167 27.225 36.05 25.875C36.5833 24.525 36.8833 23.0667 36.95 21.5H30.1C30.3333 23.1 30.775 24.575 31.425 25.925C32.075 27.275 32.9667 28.5167 34.1 29.65ZM12.95 18.5H18.5V3.05C16.4333 3.28333 14.5083 3.81667 12.725 4.65C10.9417 5.48333 9.33333 6.6 7.9 8C9.26667 9.36667 10.3833 10.95 11.25 12.75C12.1167 14.55 12.6833 16.4667 12.95 18.5ZM21.5 18.5H27.05C27.3167 16.4667 27.8917 14.55 28.775 12.75C29.6583 10.95 30.7833 9.36667 32.15 8C30.7167 6.6 29.1 5.48333 27.3 4.65C25.5 3.81667 23.5667 3.28333 21.5 3.05V18.5ZM18.5 36.95V21.5H12.95C12.6833 23.5333 12.1167 25.4417 11.25 27.225C10.3833 29.0083 9.26667 30.5833 7.9 31.95C9.33333 33.35 10.9 34.475 12.6 35.325C14.3 36.175 16.2667 36.7167 18.5 36.95ZM21.5 36.95C23.7333 36.7167 25.7083 36.175 27.425 35.325C29.1417 34.475 30.7167 33.35 32.15 31.95C30.7833 30.5833 29.6583 29.0083 28.775 27.225C27.8917 25.4417 27.3167 23.5333 27.05 21.5H21.5V36.95ZM20 40C17.2333 40 14.6333 39.475 12.2 38.425C9.76667 37.375 7.65 35.95 5.85 34.15C4.05 32.35 2.625 30.2333 1.575 27.8C0.525 25.3667 0 22.7667 0 20C0 17.2333 0.525 14.6333 1.575 12.2C2.625 9.76667 4.05 7.65 5.85 5.85C7.65 4.05 9.76667 2.625 12.2 1.575C14.6333 0.525 17.2333 0 20 0C22.7667 0 25.3667 0.525 27.8 1.575C30.2333 2.625 32.35 4.05 34.15 5.85C35.95 7.65 37.375 9.76667 38.425 12.2C39.475 14.6333 40 17.2333 40 20C40 22.7667 39.475 25.3667 38.425 27.8C37.375 30.2333 35.95 32.35 34.15 34.15C32.35 35.95 30.2333 37.375 27.8 38.425C25.3667 39.475 22.7667 40 20 40Z" fill="#858585"/>
</svg>
