<svg width="38" height="40" viewBox="0 0 38 40" fill="none" xmlns="http://www.w3.org/2000/svg">
<path d="M9.95 40C7.85 40 6.06667 39.7895 4.6 39.3684C3.13333 38.9474 2.16667 38.4912 1.7 38C1.2 37.5088 0.791667 36.5088 0.475 35C0.158333 33.4912 0 31.6316 0 29.4211C0 25.386 0.683334 21.4912 2.05 17.7368C3.41667 13.9825 5.35 10.7368 7.85 8C10.15 5.29825 13.1333 3.28947 16.8 1.97368C20.4667 0.657895 24.3167 0 28.35 0C30.4167 0 32.1917 0.184211 33.675 0.552632C35.1583 0.921053 36.1167 1.31579 36.55 1.73684C37.0167 2.12281 37.375 3.03509 37.625 4.47368C37.875 5.91228 38 7.85965 38 10.3158C38 14.4912 37.3417 18.4561 36.025 22.2105C34.7083 25.9649 32.8333 29.1404 30.4 31.7368C27.9 34.4737 24.8333 36.5351 21.2 37.9211C17.5667 39.307 13.8167 40 9.95 40ZM2.85 30.6316C3.91667 27.5439 5.33333 24.5877 7.1 21.7632C8.86667 18.9386 10.95 16.2632 13.35 13.7368C15.25 11.6316 17.5167 9.72807 20.15 8.02632C22.7833 6.32456 25.85 4.63158 29.35 2.94737C25.8167 2.77193 22.275 3.36842 18.725 4.73684C15.175 6.10526 12.2833 7.96491 10.05 10.3158C7.85 12.7368 6.075 15.7719 4.725 19.4211C3.375 23.0702 2.75 26.807 2.85 30.6316ZM8.95 37C12.9167 36.8246 16.6083 36.0614 20.025 34.7105C23.4417 33.3596 26.1833 31.5965 28.25 29.4211C30.45 27 32.175 23.9561 33.425 20.2895C34.675 16.6228 35.2667 12.8772 35.2 9.05263C33.7667 12.7368 32.2083 15.9211 30.525 18.6053C28.8417 21.2895 26.9833 23.7368 24.95 25.9474C23.0833 28.0526 20.8583 29.9561 18.275 31.6579C15.6917 33.3597 12.5833 35.1404 8.95 37ZM4.95 34.7895C8.05 33.8772 11.1667 32.4298 14.3 30.4474C17.4333 28.4649 20.25 26.2105 22.75 23.6842C25.1167 21.0877 27.225 18.1667 29.075 14.9211C30.925 11.6754 32.3333 8.35088 33.3 4.94737C30.0667 5.96491 26.8917 7.46491 23.775 9.44737C20.6583 11.4298 17.9 13.6316 15.5 16.0526C13.2667 18.4737 11.1917 21.3421 9.275 24.6579C7.35833 27.9737 5.91667 31.3509 4.95 34.7895Z" fill="#858585"/>
</svg>