<svg width="40" height="40" viewBox="0 0 40 40" fill="none" xmlns="http://www.w3.org/2000/svg">
<path d="M20 40C17.2667 40 14.6833 39.475 12.25 38.425C9.81667 37.375 7.69167 35.9417 5.875 34.125C4.05833 32.3083 2.625 30.1833 1.575 27.75C0.525 25.3167 0 22.7333 0 20C0 17.2333 0.525 14.6417 1.575 12.225C2.625 9.80833 4.05833 7.69167 5.875 5.875C7.69167 4.05833 9.81667 2.625 12.25 1.575C14.6833 0.525 17.2667 0 20 0C22.7667 0 25.3583 0.525 27.775 1.575C30.1917 2.625 32.3083 4.05833 34.125 5.875C35.9417 7.69167 37.375 9.80833 38.425 12.225C39.475 14.6417 40 17.2333 40 20C40 22.7333 39.475 25.3167 38.425 27.75C37.375 30.1833 35.9417 32.3083 34.125 34.125C32.3083 35.9417 30.1917 37.375 27.775 38.425C25.3583 39.475 22.7667 40 20 40ZM30.25 15.35L33.7 14.15L34.6 10.95C33.4667 9.18333 32.0667 7.675 30.4 6.425C28.7333 5.175 26.85 4.21667 24.75 3.55L21.5 5.7V9.2L30.25 15.35ZM9.8 15.35L18.5 9.2V5.7L15.3 3.55C13.2 4.21667 11.3167 5.175 9.65 6.425C7.98333 7.675 6.58333 9.18333 5.45 10.95L6.55 14.15L9.8 15.35ZM7.1 31.35L10.1 31L12.05 27.75L8.95 18.2L5.4 17L3 18.95C3 21.35 3.26667 23.5417 3.8 25.525C4.33333 27.5083 5.43333 29.45 7.1 31.35V31.35ZM20 37C20.9 37 21.8083 36.9167 22.725 36.75C23.6417 36.5833 24.6 36.3667 25.6 36.1L27.25 32.5L25.65 29.75H14.4L12.8 32.5L14.45 36.1C15.3167 36.3667 16.2333 36.5833 17.2 36.75C18.1667 36.9167 19.1 37 20 37ZM14.7 26.75H25.1L28.15 17.6L20 11.75L11.7 17.6L14.7 26.75ZM32.95 31.35C34.5833 29.45 35.6667 27.5083 36.2 25.525C36.7333 23.5417 37 21.35 37 18.95L34.6 17.3L31.1 18.2L28 27.75L29.9 31L32.95 31.35Z" fill="#858585"/>
</svg>
