<svg width="40" height="44" viewBox="0 0 40 44" fill="none" xmlns="http://www.w3.org/2000/svg">
<path d="M2.15 38.0283L0 35.8704L8.7 27.1387C9.8 26.0347 10.5833 24.6547 11.05 22.9986C11.5167 21.3426 11.75 19.0259 11.75 16.0484C11.75 14.1414 12.1667 12.2679 13 10.4279C13.8333 8.5879 15.1 6.81478 16.8 5.10858C19.7333 2.16454 22.95 0.491788 26.45 0.0903285C29.95 -0.311131 32.8333 0.625608 35.1 2.90055C37.3667 5.17549 38.3 8.08607 37.9 11.6323C37.5 15.1785 35.8333 18.4237 32.9 21.3677C31.2 23.0739 29.4333 24.3285 27.6 25.1314C25.7667 25.9343 23.9 26.3358 22 26.3358C19.0333 26.3358 16.7083 26.5532 15.025 26.9881C13.3417 27.4231 11.95 28.1925 10.85 29.2965L2.15 38.0283ZM16.65 21.3677C18.2833 23.007 20.5 23.6175 23.3 23.1994C26.1 22.7812 28.6167 21.4513 30.85 19.2099C33.0833 16.9684 34.4167 14.4676 34.85 11.7076C35.2833 8.94754 34.6833 6.74787 33.05 5.10858C31.4167 3.46928 29.2083 2.85873 26.425 3.27692C23.6417 3.6951 21.1333 5.02494 18.9 7.26642C16.6667 9.50791 15.325 12.0087 14.875 14.7687C14.425 17.5287 15.0167 19.7284 16.65 21.3677V21.3677ZM32.8 44C30.8 44 29.1 43.2974 27.7 41.8923C26.3 40.4872 25.6 38.781 25.6 36.7737C25.6 34.7664 26.3 33.0602 27.7 31.6551C29.1 30.25 30.8 29.5474 32.8 29.5474C34.8 29.5474 36.5 30.25 37.9 31.6551C39.3 33.0602 40 34.7664 40 36.7737C40 38.781 39.3 40.4872 37.9 41.8923C36.5 43.2974 34.8 44 32.8 44ZM32.8 40.989C34 40.989 35 40.5876 35.8 39.7847C36.6 38.9817 37 37.9781 37 36.7737C37 35.5693 36.6 34.5657 35.8 33.7628C35 32.9599 34 32.5584 32.8 32.5584C31.6 32.5584 30.6 32.9599 29.8 33.7628C29 34.5657 28.6 35.5693 28.6 36.7737C28.6 37.9781 29 38.9817 29.8 39.7847C30.6 40.5876 31.6 40.989 32.8 40.989Z" fill="#858585"/>
</svg>
