<svg width="40" height="40" viewBox="0 0 40 40" fill="none" xmlns="http://www.w3.org/2000/svg">
<path d="M6.75 30.8C8.45 29.5667 9.76667 27.9833 10.7 26.05C11.6333 24.1167 12.1 22.1 12.1 20C12.1 17.9 11.6333 15.875 10.7 13.925C9.76667 11.975 8.45 10.3833 6.75 9.15C5.48333 10.6833 4.54167 12.375 3.925 14.225C3.30833 16.075 3 18 3 20C3 22 3.30833 23.9167 3.925 25.75C4.54167 27.5833 5.48333 29.2667 6.75 30.8ZM20 37C22.0667 37 24.0417 36.675 25.925 36.025C27.8083 35.375 29.55 34.3667 31.15 33C29.1833 31.4 27.6583 29.4583 26.575 27.175C25.4917 24.8917 24.95 22.5 24.95 20C24.95 17.5 25.4917 15.1 26.575 12.8C27.6583 10.5 29.1833 8.55 31.15 6.95C29.55 5.61667 27.8083 4.625 25.925 3.975C24.0417 3.325 22.0667 3 20 3C17.9333 3 15.9583 3.325 14.075 3.975C12.1917 4.625 10.45 5.61667 8.85 6.95C10.8167 8.55 12.35 10.5 13.45 12.8C14.55 15.1 15.1 17.5 15.1 20C15.1 22.5 14.55 24.8917 13.45 27.175C12.35 29.4583 10.8167 31.4 8.85 33C10.45 34.3667 12.1917 35.375 14.075 36.025C15.9583 36.675 17.9333 37 20 37ZM33.3 30.8C34.5667 29.2667 35.5 27.5833 36.1 25.75C36.7 23.9167 37 22 37 20C37 18 36.7 16.075 36.1 14.225C35.5 12.375 34.5667 10.6833 33.3 9.15C31.6 10.3833 30.2833 11.975 29.35 13.925C28.4167 15.875 27.95 17.9 27.95 20C27.95 22.1 28.4167 24.1167 29.35 26.05C30.2833 27.9833 31.6 29.5667 33.3 30.8ZM20 40C17.2667 40 14.6833 39.475 12.25 38.425C9.81667 37.375 7.69167 35.9417 5.875 34.125C4.05833 32.3083 2.625 30.1833 1.575 27.75C0.525 25.3167 0 22.7333 0 20C0 17.2333 0.525 14.6417 1.575 12.225C2.625 9.80833 4.05833 7.69167 5.875 5.875C7.69167 4.05833 9.81667 2.625 12.25 1.575C14.6833 0.525 17.2667 0 20 0C22.7667 0 25.3583 0.525 27.775 1.575C30.1917 2.625 32.3083 4.05833 34.125 5.875C35.9417 7.69167 37.375 9.80833 38.425 12.225C39.475 14.6417 40 17.2333 40 20C40 22.7333 39.475 25.3167 38.425 27.75C37.375 30.1833 35.9417 32.3083 34.125 34.125C32.3083 35.9417 30.1917 37.375 27.775 38.425C25.3583 39.475 22.7667 40 20 40Z" fill="#858585"/>
</svg>
