<svg width="40" height="40" viewBox="0 0 40 40" fill="none" xmlns="http://www.w3.org/2000/svg">
<path fill-rule="evenodd" clip-rule="evenodd" d="M23.1326 12.9833C23.3791 12.9913 23.6128 13.0948 23.7843 13.272C23.9559 13.4492 24.0518 13.6862 24.0518 13.9328C24.0518 14.1794 23.9559 14.4164 23.7843 14.5936C23.6128 14.7708 23.3791 14.8743 23.1326 14.8823C22.8861 14.8743 22.6524 14.7708 22.4809 14.5936C22.3093 14.4164 22.2134 14.1794 22.2134 13.9328C22.2134 13.6862 22.3093 13.4492 22.4809 13.272C22.6524 13.0948 22.8861 12.9913 23.1326 12.9833ZM11.8616 15.0323H20.1916C20.4148 15.6328 20.816 16.1509 21.3415 16.5172C21.8671 16.8835 22.492 17.0807 23.1326 17.0823C23.7731 17.0805 24.3977 16.8832 24.9231 16.5169C25.4484 16.1506 25.8495 15.6326 26.0726 15.0323H28.8616C29.1533 15.0323 29.4331 14.9164 29.6394 14.7101C29.8457 14.5038 29.9616 14.224 29.9616 13.9323C29.9616 13.6406 29.8457 13.3608 29.6394 13.1545C29.4331 12.9482 29.1533 12.8323 28.8616 12.8323H26.0726C25.8493 12.2321 25.4482 11.7144 24.9229 11.3483C24.3975 10.9821 23.7729 10.785 23.1326 10.7833C22.4921 10.7851 21.8675 10.9822 21.342 11.3484C20.8165 11.7145 20.4152 12.2321 20.1916 12.8323H11.8616C11.5699 12.8323 11.2901 12.9482 11.0838 13.1545C10.8775 13.3608 10.7616 13.6406 10.7616 13.9323C10.7616 14.224 10.8775 14.5038 11.0838 14.7101C11.2901 14.9164 11.5699 15.0323 11.8616 15.0323ZM28.8616 19.2823H11.8616C11.5699 19.2823 11.2901 19.3982 11.0838 19.6045C10.8775 19.8108 10.7616 20.0906 10.7616 20.3823C10.7616 20.674 10.8775 20.9538 11.0838 21.1601C11.2901 21.3664 11.5699 21.4823 11.8616 21.4823H28.8616C29.1533 21.4823 29.4331 21.3664 29.6394 21.1601C29.8457 20.9538 29.9616 20.674 29.9616 20.3823C29.9616 20.0906 29.8457 19.8108 29.6394 19.6045C29.4331 19.3982 29.1533 19.2823 28.8616 19.2823ZM17.5906 27.7833C17.3464 27.7721 17.116 27.6672 16.9472 27.4905C16.7784 27.3137 16.6842 27.0787 16.6842 26.8343C16.6842 26.5899 16.7784 26.3549 16.9472 26.1781C17.116 26.0014 17.3464 25.8965 17.5906 25.8853C17.8371 25.8933 18.0708 25.9968 18.2423 26.174C18.4139 26.3512 18.5098 26.5882 18.5098 26.8348C18.5098 27.0814 18.4139 27.3184 18.2423 27.4956C18.0708 27.6728 17.8371 27.7763 17.5906 27.7843M28.8616 25.7333H20.5316C20.3084 25.1328 19.9072 24.6147 19.3817 24.2484C18.8561 23.8821 18.2312 23.6849 17.5906 23.6833C16.9501 23.6851 16.3255 23.8824 15.8001 24.2487C15.2748 24.615 14.8737 25.133 14.6506 25.7333H11.8616C11.5699 25.7333 11.2901 25.8492 11.0838 26.0555C10.8775 26.2618 10.7616 26.5416 10.7616 26.8333C10.7616 27.125 10.8775 27.4048 11.0838 27.6111C11.2901 27.8174 11.5699 27.9333 11.8616 27.9333H14.6506C14.8737 28.5336 15.2748 29.0516 15.8001 29.4179C16.3255 29.7842 16.9501 29.9815 17.5906 29.9833C18.2312 29.9814 18.8559 29.7841 19.3814 29.4178C19.9069 29.0515 20.3082 28.5336 20.5316 27.9333H28.8616C29.1533 27.9333 29.4331 27.8174 29.6394 27.6111C29.8457 27.4048 29.9616 27.125 29.9616 26.8333C29.9616 26.5416 29.8457 26.2618 29.6394 26.0555C29.4331 25.8492 29.1533 25.7333 28.8616 25.7333Z" fill="#646464"/>
<circle cx="19.8616" cy="19.8833" r="18.5" stroke="#8E8E8E" stroke-width="2"/>
</svg>
