<svg width="25" height="25" viewBox="0 0 25 25" fill="none" xmlns="http://www.w3.org/2000/svg">
<path fill-rule="evenodd" clip-rule="evenodd" d="M13.4349 2.11214L15.7671 6.83757C15.9545 7.21741 16.3173 7.48099 16.7372 7.54213L21.9517 8.2998C23.008 8.45314 23.431 9.75301 22.6653 10.4977L18.892 14.1758C18.7424 14.3216 18.6305 14.5016 18.5659 14.7003C18.5013 14.899 18.486 15.1104 18.5211 15.3163L19.4121 20.5098C19.5925 21.5631 18.4881 22.3648 17.543 21.8688L12.8787 19.4163C12.6939 19.3191 12.4882 19.2683 12.2794 19.2683C12.0705 19.2683 11.8648 19.3191 11.68 19.4163L7.01574 21.8688C6.06965 22.3648 4.96521 21.5631 5.14561 20.5098L6.03658 15.3163C6.07166 15.1104 6.05625 14.899 5.99166 14.7004C5.92707 14.5017 5.81524 14.3217 5.66576 14.1758L1.89243 10.4977C1.12774 9.75301 1.54967 8.45314 2.60701 8.2998L7.82051 7.54213C8.24044 7.48099 8.60424 7.21741 8.79166 6.83757L11.1228 2.11214C11.5958 1.15403 12.9619 1.15403 13.4349 2.11214" fill="#FB1E53"/>
</svg>
