<svg width="25" height="25" viewBox="0 0 25 25" fill="none" xmlns="http://www.w3.org/2000/svg">
<path fill-rule="evenodd" clip-rule="evenodd" d="M12.2817 17.6058C9.61177 17.6058 7.38385 16.0413 6.87472 13.9627C6.76047 13.4937 7.21247 13.0587 7.79375 13.0587H16.7696C17.3509 13.0587 17.8028 13.4937 17.6886 13.9627C17.1795 16.0413 14.9516 17.6058 12.2817 17.6058M9.56166 7.71994C9.95505 7.71968 10.3324 7.8757 10.6108 8.15368C10.8891 8.43166 11.0457 8.80883 11.0459 9.20221C11.0462 9.5956 10.8902 9.97299 10.6122 10.2513C10.3342 10.5297 9.95705 10.6862 9.56366 10.6865C9.36887 10.6866 9.17597 10.6484 8.99596 10.574C8.81595 10.4995 8.65236 10.3904 8.51453 10.2528C8.23618 9.97478 8.07965 9.59761 8.07938 9.20422C8.07912 8.81083 8.23514 8.43345 8.51312 8.15509C8.7911 7.87674 9.16827 7.72021 9.56166 7.71994M15.2091 7.71994C15.4084 7.71248 15.6071 7.74526 15.7933 7.81633C15.9796 7.88739 16.1497 7.99528 16.2933 8.13355C16.4369 8.27182 16.5512 8.43763 16.6293 8.62106C16.7074 8.8045 16.7478 9.0018 16.7479 9.20117C16.748 9.40055 16.708 9.59791 16.6301 9.78145C16.5523 9.96499 16.4382 10.131 16.2947 10.2694C16.1513 10.4079 15.9814 10.516 15.7952 10.5873C15.609 10.6586 15.4104 10.6917 15.2111 10.6845C14.8274 10.6706 14.464 10.5085 14.1974 10.2323C13.9308 9.95602 13.7816 9.58713 13.7814 9.20318C13.7811 8.81923 13.9297 8.45014 14.196 8.17352C14.4623 7.8969 14.8254 7.73431 15.2091 7.71994M12.2817 1.11035C6.19322 1.11035 1.25732 6.04525 1.25732 12.1347C1.25732 18.2231 6.19322 23.159 12.2817 23.159C18.3701 23.159 23.306 18.2231 23.306 12.1347C23.306 6.04525 18.3701 1.11035 12.2817 1.11035" fill="#8B95A1"/>
</svg>
