<svg width="49" height="49" viewBox="0 0 49 49" fill="none" xmlns="http://www.w3.org/2000/svg">
<path d="M15.1776 43.5636C13.0729 43.5636 11.2857 43.3631 9.81574 42.9622C8.34583 42.5613 7.37703 42.1271 6.90933 41.6594C6.40822 41.1917 5.99898 40.2396 5.68162 38.8031C5.36425 37.3665 5.20557 35.596 5.20557 33.4913C5.20557 29.6495 5.89041 25.9413 7.2601 22.3668C8.62979 18.7922 10.5674 15.7021 13.0729 13.0963C15.378 10.524 18.368 8.61141 22.0427 7.35864C25.7175 6.10587 29.576 5.47949 33.6183 5.47949C35.6895 5.47949 37.4684 5.65488 38.9551 6.00565C40.4417 6.35643 41.4021 6.73226 41.8364 7.13314C42.3041 7.50062 42.6632 8.3692 42.9138 9.73889C43.1644 11.1086 43.2896 12.9627 43.2896 15.3012C43.2896 19.2766 42.6298 23.0516 41.3103 26.6262C39.9907 30.2007 38.1115 33.2241 35.6728 35.6962C33.1673 38.3019 30.0938 40.2646 26.4525 41.5842C22.8111 42.9038 19.0528 43.5636 15.1776 43.5636ZM8.06187 34.6439C9.1309 31.704 10.5507 28.8895 12.3213 26.2002C14.0918 23.511 16.1798 20.9637 18.5851 18.5584C20.4893 16.5539 22.761 14.7416 25.4001 13.1214C28.0393 11.5011 31.1128 9.88923 34.6205 8.28569C31.0793 8.11865 27.5298 8.68657 23.972 9.98945C20.4141 11.2923 17.5161 13.0629 15.2778 15.3012C13.0729 17.6063 11.294 20.496 9.94102 23.9703C8.58803 27.4446 7.96165 31.0025 8.06187 34.6439ZM14.1754 40.7073C18.1508 40.5402 21.8506 39.8136 25.2749 38.5274C28.6991 37.2413 31.4468 35.5626 33.5181 33.4913C35.7229 31.1862 37.4517 28.2882 38.7045 24.7971C39.9573 21.3061 40.5503 17.7399 40.4834 14.0985C39.0469 17.6063 37.4852 20.638 35.7981 23.1936C34.111 25.7492 32.2486 28.0794 30.2108 30.184C28.34 32.1884 26.11 34.0008 23.521 35.621C20.9319 37.2413 17.8167 38.9367 14.1754 40.7073ZM10.1665 38.6026C13.2734 37.734 16.3969 36.356 19.5372 34.4685C22.6775 32.581 25.5004 30.4346 28.0059 28.0293C30.3778 25.5571 32.4908 22.776 34.3449 19.6859C36.199 16.5957 37.6104 13.4304 38.5792 10.1899C35.3387 11.1587 32.1567 12.5868 29.0332 14.4743C25.9096 16.3618 23.1452 18.4581 20.7399 20.7632C18.5016 23.0683 16.422 25.7993 14.5011 28.9563C12.5802 32.1133 11.1353 35.3287 10.1665 38.6026Z" fill="#858585"/>
</svg>
