<svg width="49" height="49" viewBox="0 0 49 49" fill="none" xmlns="http://www.w3.org/2000/svg">
<path d="M6.74753 40.6076L4.59277 38.4529L13.312 29.7336C14.4145 28.6312 15.1995 27.2531 15.6672 25.5995C16.1349 23.9458 16.3688 21.6324 16.3688 18.6592C16.3688 16.755 16.7864 14.8842 17.6215 13.0468C18.4567 11.2094 19.7262 9.43881 21.4299 7.73505C24.3698 4.79523 27.5935 3.12487 31.1013 2.72399C34.609 2.3231 37.4987 3.2585 39.7704 5.53018C42.0421 7.80186 42.9775 10.7083 42.5766 14.2494C42.1757 17.7906 40.5054 21.0311 37.5656 23.9709C35.8618 25.6747 34.0912 26.9274 32.2538 27.7292C30.4164 28.531 28.5456 28.9318 26.6414 28.9318C23.6682 28.9318 21.3381 29.149 19.651 29.5833C17.964 30.0176 16.5692 30.7859 15.4668 31.8884L6.74753 40.6076ZM21.2796 23.9709C22.9166 25.6078 25.1381 26.2175 27.9443 25.7999C30.7505 25.3823 33.2727 24.0544 35.511 21.8161C37.7493 19.5779 39.0856 17.0807 39.5199 14.3246C39.9542 11.5685 39.3528 9.372 37.7159 7.73505C36.0789 6.0981 33.8657 5.48842 31.0762 5.90601C28.2867 6.3236 25.7729 7.65153 23.5346 9.88981C21.2963 12.1281 19.9517 14.6253 19.5007 17.3813C19.0497 20.1374 19.6427 22.3339 21.2796 23.9709ZM37.4653 46.5708C35.4609 46.5708 33.7572 45.8692 32.3541 44.4661C30.951 43.063 30.2494 41.3593 30.2494 39.3548C30.2494 37.3504 30.951 35.6467 32.3541 34.2436C33.7572 32.8405 35.4609 32.1389 37.4653 32.1389C39.4698 32.1389 41.1735 32.8405 42.5766 34.2436C43.9797 35.6467 44.6813 37.3504 44.6813 39.3548C44.6813 41.3593 43.9797 43.063 42.5766 44.4661C41.1735 45.8692 39.4698 46.5708 37.4653 46.5708ZM37.4653 43.5641C38.668 43.5641 39.6702 43.1633 40.472 42.3615C41.2737 41.5597 41.6746 40.5575 41.6746 39.3548C41.6746 38.1522 41.2737 37.15 40.472 36.3482C39.6702 35.5464 38.668 35.1456 37.4653 35.1456C36.2627 35.1456 35.2605 35.5464 34.4587 36.3482C33.6569 37.15 33.256 38.1522 33.256 39.3548C33.256 40.5575 33.6569 41.5597 34.4587 42.3615C35.2605 43.1633 36.2627 43.5641 37.4653 43.5641Z" fill="#858585"/>
</svg>
