<svg width="30" height="30" viewBox="0 0 30 30" fill="none" xmlns="http://www.w3.org/2000/svg">
<path fill-rule="evenodd" clip-rule="evenodd" d="M9.375 14.5586C9.99057 14.5586 10.6001 14.4373 11.1688 14.2018C11.7375 13.9662 12.2543 13.6209 12.6896 13.1857C13.1248 12.7504 13.4701 12.2336 13.7057 11.6649C13.9413 11.0962 14.0625 10.4867 14.0625 9.87109C14.0625 9.25552 13.9413 8.64598 13.7057 8.07727C13.4701 7.50855 13.1248 6.99181 12.6896 6.55653C12.2543 6.12126 11.7375 5.77598 11.1688 5.54041C10.6001 5.30484 9.99057 5.18359 9.375 5.18359C8.1318 5.18359 6.93951 5.67745 6.06044 6.55653C5.18136 7.43561 4.6875 8.62789 4.6875 9.87109C4.6875 11.1143 5.18136 12.3066 6.06044 13.1857C6.93951 14.0647 8.1318 14.5586 9.375 14.5586ZM10 22.2848C10 20.7048 10.9637 18.3661 13.1 16.5948C12.0462 16.2236 10.815 15.9911 9.375 15.9911C3.075 15.9911 0.625 20.2886 0.625 22.2848C0.625 24.2848 5.84125 24.8148 9.375 24.8148C9.96375 24.8148 10.6 24.7986 11.2513 24.7648C10.425 24.1061 10 23.2811 10 22.2848Z" fill="#333333" fill-opacity="0.72"/>
<path fill-rule="evenodd" clip-rule="evenodd" d="M20.625 15.9923C14.325 15.9923 11.875 20.2886 11.875 22.2861C11.875 24.2836 17.0912 24.8161 20.625 24.8161C24.1587 24.8161 29.375 24.2836 29.375 22.2861C29.375 20.2886 26.925 15.9923 20.625 15.9923ZM20.625 14.5586C21.2406 14.5586 21.8501 14.4373 22.4188 14.2018C22.9875 13.9662 23.5043 13.6209 23.9396 13.1857C24.3748 12.7504 24.7201 12.2336 24.9557 11.6649C25.1913 11.0962 25.3125 10.4867 25.3125 9.87109C25.3125 9.25552 25.1913 8.64598 24.9557 8.07727C24.7201 7.50855 24.3748 6.99181 23.9396 6.55653C23.5043 6.12126 22.9875 5.77598 22.4188 5.54041C21.8501 5.30484 21.2406 5.18359 20.625 5.18359C19.3818 5.18359 18.1895 5.67745 17.3104 6.55653C16.4314 7.43561 15.9375 8.62789 15.9375 9.87109C15.9375 11.1143 16.4314 12.3066 17.3104 13.1857C18.1895 14.0647 19.3818 14.5586 20.625 14.5586Z" fill="#333333"/>
</svg>
