<svg width="48" height="49" viewBox="0 0 48 49" fill="none" xmlns="http://www.w3.org/2000/svg">
<path d="M24 44.3906C21.2667 44.3906 18.6833 43.8656 16.25 42.8156C13.8167 41.7656 11.6917 40.3323 9.875 38.5156C8.05833 36.699 6.625 34.574 5.575 32.1406C4.525 29.7073 4 27.124 4 24.3906C4 21.624 4.525 19.0323 5.575 16.6156C6.625 14.199 8.05833 12.0823 9.875 10.2656C11.6917 8.44896 13.8167 7.01562 16.25 5.96562C18.6833 4.91562 21.2667 4.39062 24 4.39062C26.7667 4.39062 29.3583 4.91562 31.775 5.96562C34.1917 7.01562 36.3083 8.44896 38.125 10.2656C39.9417 12.0823 41.375 14.199 42.425 16.6156C43.475 19.0323 44 21.624 44 24.3906C44 27.124 43.475 29.7073 42.425 32.1406C41.375 34.574 39.9417 36.699 38.125 38.5156C36.3083 40.3323 34.1917 41.7656 31.775 42.8156C29.3583 43.8656 26.7667 44.3906 24 44.3906ZM34.25 19.7406L37.7 18.5406L38.6 15.3406C37.4667 13.574 36.0667 12.0656 34.4 10.8156C32.7333 9.56563 30.85 8.60729 28.75 7.94063L25.5 10.0906V13.5906L34.25 19.7406ZM13.8 19.7406L22.5 13.5906V10.0906L19.3 7.94063C17.2 8.60729 15.3167 9.56563 13.65 10.8156C11.9833 12.0656 10.5833 13.574 9.45 15.3406L10.55 18.5406L13.8 19.7406ZM11.1 35.7406L14.1 35.3906L16.05 32.1406L12.95 22.5906L9.4 21.3906L7 23.3406C7 25.7406 7.26667 27.9323 7.8 29.9156C8.33333 31.899 9.43333 33.8406 11.1 35.7406ZM24 41.3906C24.9 41.3906 25.8083 41.3073 26.725 41.1406C27.6417 40.974 28.6 40.7573 29.6 40.4906L31.25 36.8906L29.65 34.1406H18.4L16.8 36.8906L18.45 40.4906C19.3167 40.7573 20.2333 40.974 21.2 41.1406C22.1667 41.3073 23.1 41.3906 24 41.3906ZM18.7 31.1406H29.1L32.15 21.9906L24 16.1406L15.7 21.9906L18.7 31.1406ZM36.95 35.7406C38.5833 33.8406 39.6667 31.899 40.2 29.9156C40.7333 27.9323 41 25.7406 41 23.3406L38.6 21.6906L35.1 22.5906L32 32.1406L33.9 35.3906L36.95 35.7406Z" fill="#858585"/>
</svg>
