<svg width="48" height="48" viewBox="0 0 48 48" fill="none" xmlns="http://www.w3.org/2000/svg">
<path d="M10.75 34.8C12.45 33.5667 13.7667 31.9833 14.7 30.05C15.6333 28.1167 16.1 26.1 16.1 24C16.1 21.9 15.6333 19.875 14.7 17.925C13.7667 15.975 12.45 14.3833 10.75 13.15C9.48333 14.6833 8.54167 16.375 7.925 18.225C7.30833 20.075 7 22 7 24C7 26 7.30833 27.9167 7.925 29.75C8.54167 31.5833 9.48333 33.2667 10.75 34.8ZM24 41C26.0667 41 28.0417 40.675 29.925 40.025C31.8083 39.375 33.55 38.3667 35.15 37C33.1833 35.4 31.6583 33.4583 30.575 31.175C29.4917 28.8917 28.95 26.5 28.95 24C28.95 21.5 29.4917 19.1 30.575 16.8C31.6583 14.5 33.1833 12.55 35.15 10.95C33.55 9.61667 31.8083 8.625 29.925 7.975C28.0417 7.325 26.0667 7 24 7C21.9333 7 19.9583 7.325 18.075 7.975C16.1917 8.625 14.45 9.61667 12.85 10.95C14.8167 12.55 16.35 14.5 17.45 16.8C18.55 19.1 19.1 21.5 19.1 24C19.1 26.5 18.55 28.8917 17.45 31.175C16.35 33.4583 14.8167 35.4 12.85 37C14.45 38.3667 16.1917 39.375 18.075 40.025C19.9583 40.675 21.9333 41 24 41ZM37.3 34.8C38.5667 33.2667 39.5 31.5833 40.1 29.75C40.7 27.9167 41 26 41 24C41 22 40.7 20.075 40.1 18.225C39.5 16.375 38.5667 14.6833 37.3 13.15C35.6 14.3833 34.2833 15.975 33.35 17.925C32.4167 19.875 31.95 21.9 31.95 24C31.95 26.1 32.4167 28.1167 33.35 30.05C34.2833 31.9833 35.6 33.5667 37.3 34.8ZM24 44C21.2667 44 18.6833 43.475 16.25 42.425C13.8167 41.375 11.6917 39.9417 9.875 38.125C8.05833 36.3083 6.625 34.1833 5.575 31.75C4.525 29.3167 4 26.7333 4 24C4 21.2333 4.525 18.6417 5.575 16.225C6.625 13.8083 8.05833 11.6917 9.875 9.875C11.6917 8.05833 13.8167 6.625 16.25 5.575C18.6833 4.525 21.2667 4 24 4C26.7667 4 29.3583 4.525 31.775 5.575C34.1917 6.625 36.3083 8.05833 38.125 9.875C39.9417 11.6917 41.375 13.8083 42.425 16.225C43.475 18.6417 44 21.2333 44 24C44 26.7333 43.475 29.3167 42.425 31.75C41.375 34.1833 39.9417 36.3083 38.125 38.125C36.3083 39.9417 34.1917 41.375 31.775 42.425C29.3583 43.475 26.7667 44 24 44Z" fill="#858585"/>
</svg>
