<svg width="48" height="49" viewBox="0 0 48 49" fill="none" xmlns="http://www.w3.org/2000/svg">
<path d="M6.15 40.4408L4 38.2908L12.7 29.5908C13.8 28.4908 14.5833 27.1158 15.05 25.4658C15.5167 23.8158 15.75 21.5074 15.75 18.5408C15.75 16.6408 16.1667 14.7741 17 12.9408C17.8333 11.1074 19.1 9.34078 20.8 7.64078C23.7333 4.70745 26.95 3.04078 30.45 2.64078C33.95 2.24078 36.8333 3.17411 39.1 5.44078C41.3667 7.70745 42.3 10.6074 41.9 14.1408C41.5 17.6741 39.8333 20.9074 36.9 23.8408C35.2 25.5408 33.4333 26.7908 31.6 27.5908C29.7667 28.3908 27.9 28.7908 26 28.7908C23.0333 28.7908 20.7083 29.0074 19.025 29.4408C17.3417 29.8741 15.95 30.6408 14.85 31.7408L6.15 40.4408ZM20.65 23.8408C22.2833 25.4741 24.5 26.0824 27.3 25.6658C30.1 25.2491 32.6167 23.9241 34.85 21.6908C37.0833 19.4574 38.4167 16.9658 38.85 14.2158C39.2833 11.4658 38.6833 9.27411 37.05 7.64078C35.4167 6.00745 33.2083 5.39911 30.425 5.81578C27.6417 6.23245 25.1333 7.55745 22.9 9.79078C20.6667 12.0241 19.325 14.5158 18.875 17.2658C18.425 20.0158 19.0167 22.2074 20.65 23.8408ZM36.8 46.3908C34.8 46.3908 33.1 45.6908 31.7 44.2908C30.3 42.8908 29.6 41.1908 29.6 39.1908C29.6 37.1908 30.3 35.4908 31.7 34.0908C33.1 32.6908 34.8 31.9908 36.8 31.9908C38.8 31.9908 40.5 32.6908 41.9 34.0908C43.3 35.4908 44 37.1908 44 39.1908C44 41.1908 43.3 42.8908 41.9 44.2908C40.5 45.6908 38.8 46.3908 36.8 46.3908ZM36.8 43.3908C38 43.3908 39 42.9908 39.8 42.1908C40.6 41.3908 41 40.3908 41 39.1908C41 37.9908 40.6 36.9908 39.8 36.1908C39 35.3908 38 34.9908 36.8 34.9908C35.6 34.9908 34.6 35.3908 33.8 36.1908C33 36.9908 32.6 37.9908 32.6 39.1908C32.6 40.3908 33 41.3908 33.8 42.1908C34.6 42.9908 35.6 43.3908 36.8 43.3908Z" fill="#858585"/>
</svg>
