<svg width="49" height="49" viewBox="0 0 49 49" fill="none" xmlns="http://www.w3.org/2000/svg">
<path d="M7.06554 23.0185H13.9307C13.6968 21.4149 13.2291 19.9033 12.5276 18.4835C11.826 17.0637 10.9575 15.8359 9.92184 14.8003C9.15348 15.9696 8.50204 17.239 7.96753 18.6087C7.43301 19.9784 7.13235 21.4483 7.06554 23.0185ZM34.1754 23.0185H41.0405C40.9737 21.4483 40.6731 19.9784 40.1385 18.6087C39.604 17.239 38.9526 15.9696 38.1842 14.8003C37.0484 15.9362 36.1547 17.1889 35.5033 18.5586C34.8519 19.9283 34.4092 21.4149 34.1754 23.0185ZM9.92184 34.1931C11.0577 33.0573 11.9513 31.8129 12.6028 30.4599C13.2542 29.1069 13.6968 27.6286 13.9307 26.0251H7.06554C7.13235 27.5952 7.43301 29.0568 7.96753 30.4098C8.50204 31.7628 9.15348 33.0239 9.92184 34.1931ZM38.1842 34.1931C38.9526 33.0239 39.604 31.7628 40.1385 30.4098C40.6731 29.0568 40.9737 27.5952 41.0405 26.0251H34.1754C34.4092 27.6286 34.8519 29.1069 35.5033 30.4599C36.1547 31.8129 37.0484 33.0573 38.1842 34.1931ZM16.9874 23.0185H22.5497V7.53429C20.4785 7.76814 18.5492 8.30265 16.7619 9.13783C14.9747 9.973 13.3628 11.0921 11.9263 12.4952C13.296 13.8649 14.4151 15.4518 15.2837 17.2557C16.1523 19.0597 16.7202 20.9806 16.9874 23.0185ZM25.5564 23.0185H31.1186C31.3859 20.9806 31.9622 19.0597 32.8474 17.2557C33.7327 15.4518 34.8602 13.8649 36.2299 12.4952C34.7934 11.0921 33.1732 9.973 31.3692 9.13783C29.5652 8.30265 27.6276 7.76814 25.5564 7.53429V23.0185ZM22.5497 41.5093V26.0251H16.9874C16.7202 28.0629 16.1523 29.9755 15.2837 31.7628C14.4151 33.55 13.296 35.1285 11.9263 36.4982C13.3628 37.9013 14.9329 39.0288 16.6367 39.8807C18.3404 40.7326 20.3114 41.2754 22.5497 41.5093ZM25.5564 41.5093C27.7946 41.2754 29.774 40.7326 31.4945 39.8807C33.2149 39.0288 34.7934 37.9013 36.2299 36.4982C34.8602 35.1285 33.7327 33.55 32.8474 31.7628C31.9622 29.9755 31.3859 28.0629 31.1186 26.0251H25.5564V41.5093ZM24.053 44.566C21.2802 44.566 18.6745 44.0399 16.2358 42.9875C13.7971 41.9352 11.6757 40.5071 9.87173 38.7031C8.06775 36.8991 6.6396 34.7778 5.58727 32.339C4.53495 29.9003 4.00879 27.2946 4.00879 24.5218C4.00879 21.749 4.53495 19.1432 5.58727 16.7045C6.6396 14.2658 8.06775 12.1445 9.87173 10.3405C11.6757 8.5365 13.7971 7.10835 16.2358 6.05602C18.6745 5.0037 21.2802 4.47754 24.053 4.47754C26.8258 4.47754 29.4316 5.0037 31.8703 6.05602C34.309 7.10835 36.4304 8.5365 38.2343 10.3405C40.0383 12.1445 41.4665 14.2658 42.5188 16.7045C43.5711 19.1432 44.0973 21.749 44.0973 24.5218C44.0973 27.2946 43.5711 29.9003 42.5188 32.339C41.4665 34.7778 40.0383 36.8991 38.2343 38.7031C36.4304 40.5071 34.309 41.9352 31.8703 42.9875C29.4316 44.0399 26.8258 44.566 24.053 44.566Z" fill="#858585"/>
</svg>
