<svg width="49" height="49" viewBox="0 0 49 49" fill="none" xmlns="http://www.w3.org/2000/svg">
<path d="M24.4427 44.566C21.7033 44.566 19.1143 44.0399 16.6755 42.9875C14.2368 41.9352 12.1071 40.4987 10.2864 38.678C8.46575 36.8573 7.02924 34.7276 5.97692 32.2889C4.9246 29.8502 4.39844 27.2612 4.39844 24.5218C4.39844 21.749 4.9246 19.1516 5.97692 16.7296C7.02924 14.3076 8.46575 12.1862 10.2864 10.3655C12.1071 8.54485 14.2368 7.10835 16.6755 6.05602C19.1143 5.0037 21.7033 4.47754 24.4427 4.47754C27.2155 4.47754 29.8129 5.0037 32.2349 6.05602C34.6569 7.10835 36.7782 8.54485 38.5989 10.3655C40.4196 12.1862 41.8561 14.3076 42.9084 16.7296C43.9608 19.1516 44.4869 21.749 44.4869 24.5218C44.4869 27.2612 43.9608 29.8502 42.9084 32.2889C41.8561 34.7276 40.4196 36.8573 38.5989 38.678C36.7782 40.4987 34.6569 41.9352 32.2349 42.9875C29.8129 44.0399 27.2155 44.566 24.4427 44.566ZM34.7154 19.8615L38.173 18.6588L39.075 15.4518C37.9391 13.6812 36.536 12.1695 34.8657 10.9168C33.1953 9.66399 31.3078 8.70353 29.2032 8.03539L25.946 10.1901V13.6979L34.7154 19.8615ZM14.2201 19.8615L22.9394 13.6979V10.1901L19.7323 8.03539C17.6276 8.70353 15.7401 9.66399 14.0698 10.9168C12.3994 12.1695 10.9963 13.6812 9.86049 15.4518L10.9629 18.6588L14.2201 19.8615ZM11.5141 35.8969L14.5208 35.5461L16.4751 32.2889L13.3682 22.7178L9.81038 21.5151L7.40507 23.4695C7.40507 25.8748 7.67233 28.0713 8.20684 30.059C8.74136 32.0467 9.84379 33.9927 11.5141 35.8969ZM24.4427 41.5594C25.3447 41.5594 26.255 41.4759 27.1737 41.3088C28.0924 41.1418 29.0529 40.9247 30.0551 40.6574L31.7087 37.0494L30.1052 34.2934H18.8303L17.2268 37.0494L18.8804 40.6574C19.749 40.9247 20.6677 41.1418 21.6365 41.3088C22.6053 41.4759 23.5407 41.5594 24.4427 41.5594ZM19.131 31.2867H29.554L32.6107 22.1165L24.4427 16.2535L16.1243 22.1165L19.131 31.2867ZM37.4213 35.8969C39.0583 33.9927 40.144 32.0467 40.6785 30.059C41.213 28.0713 41.4803 25.8748 41.4803 23.4695L39.075 21.8158L35.5672 22.7178L32.4604 32.2889L34.3646 35.5461L37.4213 35.8969Z" fill="#858585"/>
</svg>
