<svg width="48" height="49" viewBox="0 0 48 49" fill="none" xmlns="http://www.w3.org/2000/svg">
<path d="M14.95 43.3906C12.85 43.3906 11.0667 43.1906 9.6 42.7906C8.13333 42.3906 7.16667 41.9573 6.7 41.4906C6.2 41.024 5.79167 40.074 5.475 38.6406C5.15833 37.2073 5 35.4406 5 33.3406C5 29.5073 5.68333 25.8073 7.05 22.2406C8.41667 18.674 10.35 15.5906 12.85 12.9906C15.15 10.424 18.1333 8.51562 21.8 7.26562C25.4667 6.01562 29.3167 5.39062 33.35 5.39062C35.4167 5.39062 37.1917 5.56563 38.675 5.91563C40.1583 6.26563 41.1167 6.64063 41.55 7.04063C42.0167 7.40729 42.375 8.27396 42.625 9.64062C42.875 11.0073 43 12.8573 43 15.1906C43 19.1573 42.3417 22.924 41.025 26.4906C39.7083 30.0573 37.8333 33.074 35.4 35.5406C32.9 38.1406 29.8333 40.099 26.2 41.4156C22.5667 42.7323 18.8167 43.3906 14.95 43.3906ZM7.85 34.4906C8.91667 31.5573 10.3333 28.749 12.1 26.0656C13.8667 23.3823 15.95 20.8406 18.35 18.4406C20.25 16.4406 22.5167 14.6323 25.15 13.0156C27.7833 11.399 30.85 9.79063 34.35 8.19063C30.8167 8.02396 27.275 8.59063 23.725 9.89062C20.175 11.1906 17.2833 12.9573 15.05 15.1906C12.85 17.4906 11.075 20.374 9.725 23.8406C8.375 27.3073 7.75 30.8573 7.85 34.4906ZM13.95 40.5406C17.9167 40.374 21.6083 39.649 25.025 38.3656C28.4417 37.0823 31.1833 35.4073 33.25 33.3406C35.45 31.0406 37.175 28.149 38.425 24.6656C39.675 21.1823 40.2667 17.624 40.2 13.9906C38.7667 17.4906 37.2083 20.5156 35.525 23.0656C33.8417 25.6156 31.9833 27.9406 29.95 30.0406C28.0833 32.0406 25.8583 33.849 23.275 35.4656C20.6917 37.0823 17.5833 38.774 13.95 40.5406ZM9.95 38.4406C13.05 37.574 16.1667 36.199 19.3 34.3156C22.4333 32.4323 25.25 30.2906 27.75 27.8906C30.1167 25.424 32.225 22.649 34.075 19.5656C35.925 16.4823 37.3333 13.324 38.3 10.0906C35.0667 11.0573 31.8917 12.4823 28.775 14.3656C25.6583 16.249 22.9 18.3406 20.5 20.6406C18.2667 22.9406 16.1917 25.6656 14.275 28.8156C12.3583 31.9656 10.9167 35.174 9.95 38.4406Z" fill="#858585"/>
</svg>
