<svg width="24" height="24" viewBox="0 0 24 24" fill="none" xmlns="http://www.w3.org/2000/svg">
<path fill-rule="evenodd" clip-rule="evenodd" d="M13.1539 1.92696L15.4809 6.64196C15.6679 7.02096 16.0299 7.28396 16.4489 7.34496L21.6519 8.10096C22.7059 8.25396 23.1279 9.55096 22.3639 10.294L18.5989 13.964C18.4497 14.1095 18.3381 14.2891 18.2736 14.4873C18.2092 14.6856 18.1938 14.8965 18.2289 15.102L19.1179 20.284C19.2979 21.335 18.1959 22.135 17.2529 21.64L12.5989 19.193C12.4145 19.0959 12.2093 19.0452 12.0009 19.0452C11.7926 19.0452 11.5873 19.0959 11.4029 19.193L6.74893 21.64C5.80493 22.135 4.70293 21.335 4.88293 20.284L5.77193 15.102C5.80693 14.8965 5.79156 14.6856 5.72711 14.4874C5.66266 14.2892 5.55108 14.1096 5.40193 13.964L1.63693 10.294C0.873928 9.55096 1.29493 8.25396 2.34993 8.10096L7.55193 7.34496C7.97093 7.28396 8.33393 7.02096 8.52093 6.64196L10.8469 1.92696C11.3189 0.970961 12.6819 0.970961 13.1539 1.92696" fill="#E1E1E1"/>
</svg>
