<svg width="44" height="44" viewBox="0 0 44 44" fill="none" xmlns="http://www.w3.org/2000/svg">
<path fill-rule="evenodd" clip-rule="evenodd" d="M21.9996 33.4896C19.4497 33.4867 17.0051 32.4725 15.2021 30.6694C13.399 28.8664 12.3848 26.4218 12.3819 23.8719C12.3843 21.3218 13.3983 18.8767 15.2014 17.0733C17.0045 15.2698 19.4494 14.2554 21.9996 14.2524C24.5498 14.2554 26.9946 15.2698 28.7977 17.0733C30.6008 18.8767 31.6148 21.3218 31.6172 23.8719C31.6143 26.4218 30.6001 28.8664 28.7971 30.6694C26.994 32.4725 24.5494 33.4867 21.9996 33.4896ZM36.8734 9.41611H31.4577L29.4172 5.43961C29.0937 4.8101 28.6028 4.28197 27.9987 3.91326C27.3945 3.54454 26.7004 3.34952 25.9926 3.34961H17.9021C17.1804 3.34952 16.4731 3.5523 15.8611 3.93482C15.2491 4.31733 14.7569 4.86417 14.4407 5.51294L12.5414 9.41611H7.12574C6.51888 9.41587 5.91791 9.53519 5.35718 9.76726C4.79644 9.99933 4.28692 10.3396 3.85772 10.7686C3.42852 11.1977 3.08805 11.707 2.85576 12.2677C2.62347 12.8283 2.50391 13.4292 2.50391 14.0361V35.3046C2.50391 35.9115 2.62347 36.5124 2.85576 37.073C3.08805 37.6337 3.42852 38.1431 3.85772 38.5721C4.28692 39.0011 4.79644 39.3414 5.35718 39.5735C5.91791 39.8055 6.51888 39.9249 7.12574 39.9246H36.8734C37.4803 39.9249 38.0812 39.8055 38.642 39.5735C39.2027 39.3414 39.7122 39.0011 40.1414 38.5721C40.5706 38.1431 40.9111 37.6337 41.1434 37.073C41.3757 36.5124 41.4952 35.9115 41.4952 35.3046V14.0361C41.4952 13.4292 41.3757 12.8283 41.1434 12.2677C40.9111 11.707 40.5706 11.1977 40.1414 10.7686C39.7122 10.3396 39.2027 9.99933 38.642 9.76726C38.0812 9.53519 37.4803 9.41587 36.8734 9.41611Z" fill="white" fill-opacity="0.75"/>
<path fill-rule="evenodd" clip-rule="evenodd" d="M21.9995 17.7178C20.3684 17.7197 18.8048 18.3686 17.6517 19.5221C16.4985 20.6756 15.8501 22.2394 15.8486 23.8704C15.8496 25.5016 16.4979 27.0657 17.6511 28.2193C18.8044 29.3729 20.3683 30.0217 21.9995 30.0231C23.6306 30.0217 25.1946 29.3729 26.3478 28.2193C27.501 27.0657 28.1493 25.5016 28.1503 23.8704C28.1488 22.2394 27.5004 20.6756 26.3473 19.5221C25.1941 18.3686 23.6305 17.7197 21.9995 17.7178Z" fill="white" fill-opacity="0.75"/>
</svg>
