<svg width="22" height="21" viewBox="0 0 22 21" fill="none" xmlns="http://www.w3.org/2000/svg">
<path fill-rule="evenodd" clip-rule="evenodd" d="M12.1539 0.926961L14.4809 5.64196C14.6679 6.02096 15.0299 6.28396 15.4489 6.34496L20.6519 7.10096C21.7059 7.25396 22.1279 8.55096 21.3639 9.29396L17.5989 12.964C17.4497 13.1095 17.3381 13.2891 17.2736 13.4873C17.2092 13.6856 17.1938 13.8965 17.2289 14.102L18.1179 19.284C18.2979 20.335 17.1959 21.135 16.2529 20.64L11.5989 18.193C11.4145 18.0959 11.2093 18.0452 11.0009 18.0452C10.7926 18.0452 10.5873 18.0959 10.4029 18.193L5.74893 20.64C4.80493 21.135 3.70293 20.335 3.88293 19.284L4.77193 14.102C4.80693 13.8965 4.79156 13.6856 4.72711 13.4874C4.66266 13.2892 4.55108 13.1096 4.40193 12.964L0.636928 9.29396C-0.126072 8.55096 0.294928 7.25396 1.34993 7.10096L6.55193 6.34496C6.97093 6.28396 7.33393 6.02096 7.52093 5.64196L9.84693 0.926961C10.3189 -0.029039 11.6819 -0.029039 12.1539 0.926961" fill="#FB1E53"/>
</svg>
