<svg width="48" height="49" viewBox="0 0 48 49" fill="none" xmlns="http://www.w3.org/2000/svg">
<path d="M7.05 22.8906H13.9C13.6667 21.2906 13.2 19.7823 12.5 18.3656C11.8 16.949 10.9333 15.724 9.9 14.6906C9.13333 15.8573 8.48333 17.124 7.95 18.4906C7.41667 19.8573 7.11667 21.324 7.05 22.8906V22.8906ZM34.1 22.8906H40.95C40.8833 21.324 40.5833 19.8573 40.05 18.4906C39.5167 17.124 38.8667 15.8573 38.1 14.6906C36.9667 15.824 36.075 17.074 35.425 18.4406C34.775 19.8073 34.3333 21.2906 34.1 22.8906ZM9.9 34.0406C11.0333 32.9073 11.925 31.6656 12.575 30.3156C13.225 28.9656 13.6667 27.4906 13.9 25.8906H7.05C7.11667 27.4573 7.41667 28.9156 7.95 30.2656C8.48333 31.6156 9.13333 32.874 9.9 34.0406ZM38.1 34.0406C38.8667 32.874 39.5167 31.6156 40.05 30.2656C40.5833 28.9156 40.8833 27.4573 40.95 25.8906H34.1C34.3333 27.4906 34.775 28.9656 35.425 30.3156C36.075 31.6656 36.9667 32.9073 38.1 34.0406ZM16.95 22.8906H22.5V7.44063C20.4333 7.67396 18.5083 8.20729 16.725 9.04062C14.9417 9.87396 13.3333 10.9906 11.9 12.3906C13.2667 13.7573 14.3833 15.3406 15.25 17.1406C16.1167 18.9406 16.6833 20.8573 16.95 22.8906ZM25.5 22.8906H31.05C31.3167 20.8573 31.8917 18.9406 32.775 17.1406C33.6583 15.3406 34.7833 13.7573 36.15 12.3906C34.7167 10.9906 33.1 9.87396 31.3 9.04062C29.5 8.20729 27.5667 7.67396 25.5 7.44063V22.8906ZM22.5 41.3406V25.8906H16.95C16.6833 27.924 16.1167 29.8323 15.25 31.6156C14.3833 33.399 13.2667 34.974 11.9 36.3406C13.3333 37.7406 14.9 38.8656 16.6 39.7156C18.3 40.5656 20.2667 41.1073 22.5 41.3406ZM25.5 41.3406C27.7333 41.1073 29.7083 40.5656 31.425 39.7156C33.1417 38.8656 34.7167 37.7406 36.15 36.3406C34.7833 34.974 33.6583 33.399 32.775 31.6156C31.8917 29.8323 31.3167 27.924 31.05 25.8906H25.5V41.3406ZM24 44.3906C21.2333 44.3906 18.6333 43.8656 16.2 42.8156C13.7667 41.7656 11.65 40.3406 9.85 38.5406C8.05 36.7406 6.625 34.624 5.575 32.1906C4.525 29.7573 4 27.1573 4 24.3906C4 21.624 4.525 19.024 5.575 16.5906C6.625 14.1573 8.05 12.0406 9.85 10.2406C11.65 8.44063 13.7667 7.01562 16.2 5.96562C18.6333 4.91562 21.2333 4.39062 24 4.39062C26.7667 4.39062 29.3667 4.91562 31.8 5.96562C34.2333 7.01562 36.35 8.44063 38.15 10.2406C39.95 12.0406 41.375 14.1573 42.425 16.5906C43.475 19.024 44 21.624 44 24.3906C44 27.1573 43.475 29.7573 42.425 32.1906C41.375 34.624 39.95 36.7406 38.15 38.5406C36.35 40.3406 34.2333 41.7656 31.8 42.8156C29.3667 43.8656 26.7667 44.3906 24 44.3906Z" fill="#858585"/>
</svg>
