<svg width="24" height="28" viewBox="0 0 24 28" fill="none" xmlns="http://www.w3.org/2000/svg">
<path fill-rule="evenodd" clip-rule="evenodd" d="M7.5 13.6095C7.99246 13.6095 8.48009 13.4982 8.93506 13.2819C9.39003 13.0657 9.80343 12.7487 10.1517 12.3491C10.4999 11.9495 10.7761 11.4751 10.9645 10.953C11.153 10.4309 11.25 9.87132 11.25 9.30621C11.25 8.74109 11.153 8.18151 10.9645 7.65941C10.7761 7.13732 10.4999 6.66293 10.1517 6.26333C9.80343 5.86373 9.39003 5.54676 8.93506 5.3305C8.48009 5.11424 7.99246 5.00293 7.5 5.00293C6.50544 5.00293 5.55161 5.45631 4.84835 6.26333C4.14509 7.07035 3.75 8.16491 3.75 9.30621C3.75 10.4475 4.14509 11.5421 4.84835 12.3491C5.55161 13.1561 6.50544 13.6095 7.5 13.6095ZM8 20.7024C8 19.2519 8.771 17.1049 10.48 15.4788C9.637 15.138 8.652 14.9246 7.5 14.9246C2.46 14.9246 0.5 18.8698 0.5 20.7024C0.5 22.5385 4.673 23.0251 7.5 23.0251C7.971 23.0251 8.48 23.0101 9.001 22.9792C8.34 22.3744 8 21.617 8 20.7024Z" fill="#D3D3D3" fill-opacity="0.72"/>
<path fill-rule="evenodd" clip-rule="evenodd" d="M16.5 14.9257C11.46 14.9257 9.5 18.8698 9.5 20.7036C9.5 22.5374 13.673 23.0262 16.5 23.0262C19.327 23.0262 23.5 22.5374 23.5 20.7036C23.5 18.8698 21.54 14.9257 16.5 14.9257ZM16.5 13.6095C16.9925 13.6095 17.4801 13.4982 17.9351 13.2819C18.39 13.0657 18.8034 12.7487 19.1517 12.3491C19.4999 11.9495 19.7761 11.4751 19.9645 10.953C20.153 10.4309 20.25 9.87132 20.25 9.30621C20.25 8.74109 20.153 8.18151 19.9645 7.65941C19.7761 7.13732 19.4999 6.66293 19.1517 6.26333C18.8034 5.86373 18.39 5.54676 17.9351 5.3305C17.4801 5.11424 16.9925 5.00293 16.5 5.00293C15.5054 5.00293 14.5516 5.45631 13.8483 6.26333C13.1451 7.07035 12.75 8.16491 12.75 9.30621C12.75 10.4475 13.1451 11.5421 13.8483 12.3491C14.5516 13.1561 15.5054 13.6095 16.5 13.6095Z" fill="#D3D3D3"/>
</svg>
