<svg width="48" height="48" viewBox="0 0 48 48" fill="none" xmlns="http://www.w3.org/2000/svg">
<path d="M40.3 19.05C39.3333 15.8167 37.525 13.0917 34.875 10.875C32.225 8.65833 29.1 7.38333 25.5 7.05V10.5L40.3 19.05ZM14.85 27.4L22.5 22.9V7.05C21.1333 7.21667 19.8083 7.5 18.525 7.9C17.2417 8.3 16.0167 8.88333 14.85 9.65V27.4ZM8.55 31.15L11.85 29.2V12.05C10.2833 13.65 9.08333 15.4917 8.25 17.575C7.41667 19.6583 7 21.8 7 24C7 25.3 7.13333 26.525 7.4 27.675C7.66667 28.825 8.05 29.9833 8.55 31.15ZM16.2 39.15L31.85 30.1L24 25.5L10 33.75C10.8 34.85 11.725 35.875 12.775 36.825C13.825 37.775 14.9667 38.55 16.2 39.15ZM24 41C26.8667 41 29.5167 40.3583 31.95 39.075C34.3833 37.7917 36.4 36.0167 38 33.75L34.75 31.85L19.9 40.5C20.5667 40.6667 21.25 40.7917 21.95 40.875C22.65 40.9583 23.3333 41 24 41ZM39.45 31.1C40.05 29.8333 40.4667 28.55 40.7 27.25C40.9333 25.95 41.0333 24.5667 41 23.1L25.5 14.05V22.9L39.45 31.1ZM24 44C21.2333 44 18.6333 43.475 16.2 42.425C13.7667 41.375 11.65 39.95 9.85 38.15C8.05 36.35 6.625 34.2333 5.575 31.8C4.525 29.3667 4 26.7667 4 24C4 21.2333 4.525 18.6333 5.575 16.2C6.625 13.7667 8.05 11.65 9.85 9.85C11.65 8.05 13.7667 6.625 16.2 5.575C18.6333 4.525 21.2333 4 24 4C26.7667 4 29.3667 4.525 31.8 5.575C34.2333 6.625 36.35 8.05 38.15 9.85C39.95 11.65 41.375 13.7667 42.425 16.2C43.475 18.6333 44 21.2333 44 24C44 26.7667 43.475 29.3667 42.425 31.8C41.375 34.2333 39.95 36.35 38.15 38.15C36.35 39.95 34.2333 41.375 31.8 42.425C29.3667 43.475 26.7667 44 24 44Z" fill="#858585"/>
</svg>
