<svg width="25" height="25" viewBox="0 0 25 25" fill="none" xmlns="http://www.w3.org/2000/svg">
<path fill-rule="evenodd" clip-rule="evenodd" d="M22.5695 21.7233L19.1325 16.9133C18.8486 16.5191 18.437 16.2354 17.9675 16.1103L17.9135 16.1753C17.0185 17.2353 15.8805 18.4253 14.3305 19.9233C13.762 20.4733 13.0015 20.78 12.2105 20.7783C11.4199 20.7805 10.6597 20.4741 10.0915 19.9243C8.50953 18.3943 7.35353 17.1813 6.45153 16.1073C5.97791 16.2303 5.56222 16.515 5.27653 16.9123L1.83953 21.7233C1.72745 21.8803 1.6608 22.0652 1.6469 22.2576C1.63299 22.45 1.67237 22.6426 1.76071 22.8141C1.84905 22.9856 1.98293 23.1295 2.14766 23.2299C2.31239 23.3303 2.50161 23.3834 2.69453 23.3833H21.7145C22.5685 23.3833 23.0645 22.4183 22.5685 21.7233" fill="#FB1E53"/>
<path fill-rule="evenodd" clip-rule="evenodd" d="M12.2095 7.1853C12.4759 7.17921 12.7408 7.22639 12.9886 7.32408C13.2365 7.42176 13.4623 7.56798 13.6529 7.75414C13.8434 7.94031 13.9949 8.16267 14.0983 8.40817C14.2018 8.65367 14.2551 8.91737 14.2553 9.18377C14.2554 9.45018 14.2023 9.71393 14.0991 9.95953C13.9959 10.2051 13.8447 10.4277 13.6543 10.614C13.4639 10.8004 13.2382 10.9468 12.9905 11.0447C12.7427 11.1427 12.4779 11.1901 12.2115 11.1843C11.6811 11.1844 11.1724 10.9738 10.7972 10.5989C10.422 10.2239 10.2112 9.71523 10.211 9.1848C10.2109 8.65436 10.4215 8.1456 10.7965 7.77044C11.1715 7.39527 11.6801 7.18443 12.2105 7.1843M11.4825 18.4863C11.6789 18.674 11.9401 18.7788 12.2117 18.7786C12.4834 18.7784 12.7445 18.6733 12.9405 18.4853C17.5585 14.0233 19.0125 11.7853 19.0125 9.1853C19.0125 4.7813 14.8255 1.3543 10.2155 2.6673C7.30555 3.4973 5.40955 6.1593 5.40955 9.1853C5.40955 11.7873 6.86455 14.0243 11.4825 18.4853" fill="#FB1E53"/>
</svg>
