<svg width="25" height="24" viewBox="0 0 25 24" fill="none" xmlns="http://www.w3.org/2000/svg">
<path d="M12.2095 11.6971C10.5595 11.6971 9.20947 11.176 8.15947 10.1338C7.10947 9.09164 6.58447 7.75167 6.58447 6.11394C6.58447 4.47621 7.10947 3.13625 8.15947 2.09405C9.20947 1.05186 10.5595 0.530762 12.2095 0.530762C13.8595 0.530762 15.2095 1.05186 16.2595 2.09405C17.3095 3.13625 17.8345 4.47621 17.8345 6.11394C17.8345 7.75167 17.3095 9.09164 16.2595 10.1338C15.2095 11.176 13.8595 11.6971 12.2095 11.6971ZM0.209473 23.6451V20.1463C0.209473 19.2034 0.446973 18.3969 0.921973 17.727C1.39697 17.057 2.00947 16.5483 2.75947 16.2009C4.43447 15.4565 6.04072 14.8981 7.57822 14.5259C9.11572 14.1537 10.6595 13.9676 12.2095 13.9676C13.7595 13.9676 15.297 14.1599 16.822 14.5445C18.347 14.9292 19.947 15.4813 21.622 16.2009C22.397 16.5483 23.022 17.057 23.497 17.727C23.972 18.3969 24.2095 19.2034 24.2095 20.1463V23.6451H0.209473ZM2.45947 21.4118H21.9595V20.1463C21.9595 19.7493 21.8407 19.3709 21.6032 19.0111C21.3657 18.6513 21.072 18.3845 20.722 18.2108C19.122 17.4416 17.6595 16.9143 16.3345 16.6289C15.0095 16.3436 13.6345 16.2009 12.2095 16.2009C10.7845 16.2009 9.39697 16.3436 8.04697 16.6289C6.69697 16.9143 5.23447 17.4416 3.65947 18.2108C3.30947 18.3845 3.02197 18.6513 2.79697 19.0111C2.57197 19.3709 2.45947 19.7493 2.45947 20.1463V21.4118ZM12.2095 9.46385C13.1845 9.46385 13.9907 9.14747 14.6282 8.51471C15.2657 7.88195 15.5845 7.08169 15.5845 6.11394C15.5845 5.14619 15.2657 4.34593 14.6282 3.71317C13.9907 3.08041 13.1845 2.76403 12.2095 2.76403C11.2345 2.76403 10.4282 3.08041 9.79072 3.71317C9.15322 4.34593 8.83447 5.14619 8.83447 6.11394C8.83447 7.08169 9.15322 7.88195 9.79072 8.51471C10.4282 9.14747 11.2345 9.46385 12.2095 9.46385Z" fill="#333333"/>
</svg>
