<svg width="122" height="39" viewBox="0 0 122 39" fill="none" xmlns="http://www.w3.org/2000/svg">
<path d="M19.319 9.8349C19.3942 8.77259 19.1122 7.95 18.4729 7.36715C17.8431 6.78428 16.8466 6.49285 15.4834 6.49285C14.5809 6.49285 13.81 6.61037 13.1708 6.84539C12.5315 7.07101 12.0286 7.39065 11.6619 7.80429C11.2953 8.20853 11.065 8.67858 10.9709 9.21444C10.8863 9.63748 10.9098 10.0135 11.0414 10.3426C11.1731 10.6716 11.4034 10.963 11.7324 11.2168C12.0709 11.4707 12.4892 11.6916 12.9875 11.8796C13.4951 12.0676 14.0639 12.2322 14.6937 12.3732L17.0628 12.9372C18.4353 13.2475 19.6245 13.6611 20.6304 14.1782C21.6458 14.6858 22.4683 15.3016 23.0982 16.0254C23.7281 16.7399 24.1605 17.5625 24.3955 18.4932C24.6306 19.4239 24.6494 20.4674 24.4519 21.6237C24.1511 23.4475 23.4319 25.0128 22.2944 26.3195C21.1663 27.6263 19.6904 28.6275 17.8666 29.3231C16.0522 30.0188 13.9417 30.3666 11.535 30.3666C9.12835 30.3666 7.08364 30.0047 5.40086 29.2808C3.72749 28.5475 2.51476 27.4429 1.76268 25.967C1.01061 24.491 0.808484 22.6296 1.15632 20.3828H7.82631C7.7229 21.3135 7.84042 22.0891 8.17885 22.7095C8.52669 23.33 9.06254 23.8001 9.78642 24.1197C10.5103 24.4393 11.3846 24.5991 12.4093 24.5991C13.3494 24.5991 14.172 24.4722 14.877 24.2184C15.5915 23.9646 16.1603 23.612 16.5833 23.1608C17.0158 22.7095 17.279 22.1925 17.373 21.6096C17.467 21.0738 17.3777 20.6084 17.1051 20.2136C16.8419 19.8187 16.3906 19.4756 15.7513 19.1842C15.1215 18.8927 14.2942 18.6295 13.2695 18.3945L10.3787 17.6894C7.99083 17.1066 6.18114 16.1759 4.94962 14.8973C3.72749 13.6188 3.29504 11.8843 3.65228 9.69389C3.95311 7.8983 4.69579 6.32834 5.88031 4.984C7.07424 3.63966 8.58309 2.59615 10.4069 1.85347C12.2401 1.10139 14.2566 0.725353 16.4564 0.725353C18.6938 0.725353 20.574 1.10609 22.097 1.86757C23.6294 2.61965 24.734 3.68196 25.4108 5.0545C26.0971 6.41765 26.2945 8.01111 26.0031 9.8349H19.319ZM24.3706 38.1224L29.3625 8.34015H36.1876L35.5813 12.0488H35.7928C36.1688 11.3908 36.6671 10.7562 37.2876 10.1451C37.9174 9.53407 38.6742 9.03582 39.5579 8.65038C40.4416 8.25554 41.4522 8.05812 42.5897 8.05812C44.0939 8.05812 45.4335 8.45296 46.6086 9.24264C47.7837 10.0323 48.6392 11.2497 49.1751 12.8949C49.7109 14.5401 49.7674 16.6365 49.3443 19.1842C48.9401 21.6378 48.2068 23.6919 47.1445 25.3465C46.0916 27.0011 44.8412 28.242 43.3935 29.0693C41.9457 29.8966 40.4275 30.3102 38.8387 30.3102C37.7482 30.3102 36.8269 30.1316 36.0748 29.7744C35.3321 29.4171 34.7446 28.9471 34.3121 28.3642C33.8797 27.7814 33.5789 27.1562 33.4096 26.4887H33.2122L31.2944 38.1224H24.3706ZM34.3121 19.1701C34.1241 20.3358 34.1147 21.3511 34.2839 22.216C34.4532 23.0809 34.7963 23.753 35.3133 24.2325C35.8398 24.7025 36.5214 24.9376 37.3581 24.9376C38.2041 24.9376 38.9562 24.7025 39.6143 24.2325C40.2818 23.753 40.8411 23.0809 41.2924 22.216C41.7436 21.3511 42.0726 20.3358 42.2795 19.1701C42.4581 18.0044 42.4628 16.9937 42.2936 16.1383C42.1338 15.2828 41.8 14.62 41.2924 14.1499C40.7847 13.6799 40.1031 13.4449 39.2477 13.4449C38.411 13.4449 37.6495 13.6752 36.9632 14.1358C36.2863 14.5965 35.7223 15.2546 35.271 16.1101C34.8198 16.9655 34.5002 17.9855 34.3121 19.1701ZM60.3432 30.4089C58.0588 30.4089 56.1739 29.9389 54.6885 28.9988C53.2126 28.0587 52.1737 26.7473 51.5721 25.0645C50.9704 23.3817 50.8529 21.4263 51.2195 19.1983C51.5862 16.9796 52.343 15.0336 53.4899 13.3603C54.6368 11.6869 56.1034 10.3849 57.8895 9.45416C59.6757 8.52347 61.7016 8.05812 63.9673 8.05812C66.2423 8.05812 68.1178 8.52817 69.5938 9.46826C71.0791 10.4084 72.1226 11.7198 72.7243 13.4026C73.3354 15.0853 73.4576 17.0455 73.0909 19.2829C72.7243 21.5015 71.9628 23.4475 70.8065 25.1209C69.6502 26.7849 68.1836 28.0822 66.4068 29.0129C64.63 29.9436 62.6088 30.4089 60.3432 30.4089ZM61.1188 25.2055C61.9649 25.2055 62.7216 24.9517 63.3891 24.444C64.066 23.9364 64.6347 23.2266 65.0954 22.3147C65.556 21.4028 65.8851 20.3452 66.0825 19.1419C66.2799 17.9573 66.2987 16.9185 66.1389 16.0254C65.9885 15.123 65.6689 14.4226 65.18 13.9243C64.6911 13.4167 64.0284 13.1628 63.1917 13.1628C62.3456 13.1628 61.5841 13.4214 60.9073 13.9384C60.2304 14.4461 59.6616 15.1559 59.201 16.0677C58.7497 16.9702 58.4254 18.0279 58.228 19.2406C58.0306 20.4251 58.0071 21.4639 58.1575 22.357C58.3079 23.2501 58.6322 23.9505 59.1305 24.4581C59.6287 24.9564 60.2915 25.2055 61.1188 25.2055ZM89.7551 8.34015L88.8949 13.4167H75.2306L76.0908 8.34015H89.7551ZM79.7994 3.15081H86.6951L83.3671 23.189C83.3013 23.612 83.3107 23.9552 83.3953 24.2184C83.4893 24.4722 83.6585 24.6555 83.903 24.7684C84.1568 24.8718 84.467 24.9235 84.8337 24.9235C85.0875 24.9235 85.3695 24.8953 85.6798 24.8389C85.99 24.7825 86.225 24.7402 86.3848 24.7119L86.6105 29.6898C86.2438 29.7932 85.7503 29.9107 85.1298 30.0423C84.5187 30.1833 83.8043 30.2726 82.9864 30.3102C81.3318 30.376 79.964 30.1833 78.8828 29.7321C77.8111 29.2714 77.0544 28.5569 76.6125 27.5886C76.1801 26.6203 76.0955 25.4076 76.3587 23.9505L79.7994 3.15081ZM92.8395 30.4089C91.8148 30.4089 90.9781 30.0517 90.3295 29.3372C89.6808 28.6228 89.3988 27.7579 89.4834 26.7426C89.5774 25.7461 90.0192 24.8953 90.8089 24.1902C91.5986 23.4851 92.5011 23.1326 93.5164 23.1326C94.4847 23.1326 95.2979 23.4851 95.9559 24.1902C96.6234 24.8953 96.9101 25.7461 96.8161 26.7426C96.7597 27.4194 96.5294 28.0352 96.1252 28.5899C95.7303 29.1445 95.2415 29.5864 94.6586 29.9154C94.0757 30.2444 93.4694 30.4089 92.8395 30.4089ZM95.3073 15.546C94.2826 15.546 93.4459 15.1935 92.7972 14.4884C92.1485 13.7739 91.8665 12.9043 91.9511 11.8796C92.0451 10.8831 92.487 10.0323 93.2767 9.32725C94.0663 8.62217 94.9688 8.26964 95.9841 8.26964C96.9618 8.26964 97.7797 8.62688 98.4378 9.34135C99.0959 10.0464 99.3779 10.8925 99.2839 11.8796C99.2275 12.5659 99.0019 13.1863 98.607 13.741C98.2122 14.2957 97.7186 14.7375 97.1264 15.0665C96.5435 15.3862 95.9371 15.546 95.3073 15.546ZM121.3 14.9537L115.081 15.123C115.09 14.6623 114.987 14.2581 114.771 13.9102C114.554 13.553 114.249 13.2757 113.854 13.0782C113.459 12.8808 112.989 12.7821 112.444 12.7821C111.56 12.7821 110.766 12.9795 110.061 13.3744C109.365 13.7692 108.975 14.2816 108.89 14.9114C108.824 15.2499 108.918 15.546 109.172 15.7998C109.426 16.0442 109.99 16.2605 110.864 16.4485L114.926 17.2382C117.013 17.6518 118.526 18.371 119.466 19.3957C120.416 20.411 120.754 21.7553 120.482 23.4287C120.237 24.8577 119.607 26.0939 118.592 27.1374C117.586 28.1809 116.303 28.9894 114.742 29.5629C113.191 30.1269 111.476 30.4089 109.595 30.4089C106.418 30.4089 104.021 29.7697 102.404 28.4911C100.796 27.2032 100.044 25.4969 100.147 23.3723L106.86 23.2031C106.888 24.0022 107.156 24.6038 107.663 25.0081C108.18 25.4029 108.881 25.6097 109.765 25.6285C110.733 25.6473 111.57 25.4452 112.275 25.0222C112.98 24.5991 113.375 24.0774 113.459 23.4569C113.516 23.0527 113.379 22.7377 113.05 22.5121C112.731 22.2865 112.134 22.0844 111.259 21.9058L107.593 21.1866C105.487 20.7823 103.964 20.0209 103.024 18.9021C102.093 17.774 101.774 16.3357 102.065 14.5871C102.31 13.1958 102.883 12.0159 103.786 11.0476C104.697 10.0699 105.887 9.32725 107.353 8.8196C108.829 8.31194 110.512 8.05812 112.402 8.05812C115.429 8.05812 117.713 8.67388 119.255 9.90541C120.806 11.1275 121.488 12.8103 121.3 14.9537Z" fill="white"/>
</svg>
