<svg width="123" height="38" viewBox="0 0 123 38" fill="none" xmlns="http://www.w3.org/2000/svg">
<path d="M19.6697 9.25146C19.7455 8.18139 19.4614 7.35279 18.8174 6.76567C18.183 6.17855 17.1792 5.88499 15.8061 5.88499C14.897 5.88499 14.1205 6.00336 13.4765 6.2401C12.8326 6.46737 12.326 6.78934 11.9566 7.20601C11.5873 7.61321 11.3553 8.08669 11.2606 8.62646C11.1754 9.0526 11.1991 9.43139 11.3316 9.76283C11.4642 10.0943 11.6962 10.3878 12.0277 10.6435C12.3686 10.8992 12.79 11.1217 13.2919 11.3111C13.8032 11.5005 14.3761 11.6662 15.0106 11.8083L17.397 12.3765C18.7795 12.689 19.9775 13.1056 20.9907 13.6265C22.0135 14.1378 22.842 14.7581 23.4765 15.4873C24.111 16.207 24.5466 17.0356 24.7833 17.9731C25.0201 18.9106 25.039 19.9617 24.8402 21.1265C24.5371 22.9636 23.8127 24.5403 22.6669 25.8566C21.5305 27.1729 20.0438 28.1814 18.2066 28.8821C16.379 29.5829 14.253 29.9333 11.8288 29.9333C9.40455 29.9333 7.34489 29.5687 5.64981 28.8395C3.96421 28.1009 2.74262 26.9882 1.98504 25.5015C1.22747 24.0147 1.02387 22.1397 1.37425 19.8765H8.093C7.98883 20.814 8.1072 21.5952 8.44811 22.2202C8.79849 22.8452 9.33826 23.3187 10.0674 23.6407C10.7966 23.9626 11.6773 24.1236 12.7095 24.1236C13.6564 24.1236 14.485 23.9958 15.1953 23.7401C15.915 23.4844 16.4879 23.1293 16.914 22.6748C17.3496 22.2202 17.6148 21.6994 17.7095 21.1123C17.8042 20.5725 17.7142 20.1037 17.4396 19.706C17.1744 19.3083 16.7199 18.9626 16.076 18.6691C15.4415 18.3755 14.6081 18.1104 13.576 17.8736L10.664 17.1634C8.25872 16.5763 6.4358 15.6388 5.19527 14.3509C3.96421 13.063 3.5286 11.3159 3.88845 9.10942C4.19148 7.30071 4.93959 5.71927 6.13277 4.3651C7.33542 3.01093 8.85531 1.9598 10.6924 1.21169C12.539 0.454116 14.5703 0.0753274 16.7862 0.0753274C19.04 0.0753274 20.9339 0.45885 22.468 1.22589C24.0116 1.98347 25.1242 3.05355 25.8061 4.43612C26.4974 5.80923 26.6962 7.41434 26.4027 9.25146H19.6697ZM24.7582 37.7458L29.7866 7.74578H36.6616L36.0508 11.4816H36.2639C36.6427 10.8187 37.1446 10.1795 37.7696 9.56396C38.4041 8.94843 39.1664 8.44654 40.0565 8.05828C40.9467 7.66056 41.9647 7.46169 43.1105 7.46169C44.6256 7.46169 45.9751 7.85942 47.1588 8.65487C48.3425 9.45033 49.2042 10.6767 49.744 12.3339C50.2838 13.991 50.3406 16.1028 49.9145 18.6691C49.5073 21.1407 48.7686 23.2098 47.6986 24.8765C46.638 26.5431 45.3785 27.7931 43.9202 28.6265C42.4618 29.4598 40.9325 29.8765 39.3321 29.8765C38.2336 29.8765 37.3056 29.6965 36.548 29.3367C35.7999 28.9768 35.208 28.5034 34.7724 27.9162C34.3368 27.3291 34.0338 26.6994 33.8633 26.027H33.6645L31.7327 37.7458H24.7582ZM34.7724 18.6549C34.583 19.8291 34.5736 20.8518 34.744 21.7231C34.9145 22.5943 35.2601 23.2714 35.781 23.7543C36.3113 24.2278 36.9978 24.4645 37.8406 24.4645C38.6929 24.4645 39.4505 24.2278 40.1133 23.7543C40.7857 23.2714 41.3491 22.5943 41.8037 21.7231C42.2582 20.8518 42.5897 19.8291 42.798 18.6549C42.9779 17.4806 42.9827 16.4626 42.8122 15.6009C42.6512 14.7392 42.315 14.0715 41.8037 13.5981C41.2923 13.1246 40.6058 12.8878 39.744 12.8878C38.9012 12.8878 38.1342 13.1198 37.4429 13.5839C36.7611 14.0479 36.1929 14.7107 35.7383 15.5725C35.2838 16.4342 34.9618 17.4617 34.7724 18.6549ZM60.9938 29.9759C58.6926 29.9759 56.794 29.5024 55.2977 28.5554C53.811 27.6085 52.7646 26.2874 52.1585 24.5924C51.5525 22.8973 51.4341 20.9276 51.8034 18.6833C52.1727 16.4484 52.9351 14.4882 54.0904 12.8026C55.2457 11.117 56.7229 9.80544 58.5222 8.86794C60.3214 7.93044 62.3621 7.46169 64.6443 7.46169C66.936 7.46169 68.8252 7.93518 70.3119 8.88214C71.8082 9.82912 72.8593 11.1501 73.4654 12.8452C74.0809 14.5403 74.204 16.5147 73.8347 18.7685C73.4654 21.0034 72.6983 22.9636 71.5335 24.6492C70.3688 26.3253 68.8915 27.6321 67.1017 28.5696C65.3119 29.5071 63.276 29.9759 60.9938 29.9759ZM61.775 24.7344C62.6273 24.7344 63.3896 24.4787 64.0619 23.9674C64.7438 23.456 65.3167 22.741 65.7807 21.8225C66.2447 20.9039 66.5761 19.8386 66.775 18.6265C66.9739 17.4333 66.9928 16.3869 66.8318 15.4873C66.6803 14.5782 66.3583 13.8727 65.8659 13.3708C65.3735 12.8594 64.7059 12.6037 63.8631 12.6037C63.0108 12.6037 62.2438 12.8642 61.5619 13.385C60.8801 13.8964 60.3072 14.6113 59.8432 15.5299C59.3886 16.439 59.0619 17.5043 58.8631 18.7259C58.6642 19.9191 58.6405 20.9655 58.7921 21.8651C58.9436 22.7647 59.2703 23.4702 59.7722 23.9816C60.2741 24.4835 60.9417 24.7344 61.775 24.7344ZM90.6206 7.74578L89.7542 12.8594H75.99L76.8564 7.74578H90.6206ZM80.5922 2.51851H87.5382L84.186 22.7032C84.1197 23.1293 84.1292 23.4749 84.2144 23.7401C84.3091 23.9958 84.4795 24.1804 84.7257 24.2941C84.9814 24.3982 85.2939 24.4503 85.6632 24.4503C85.9189 24.4503 86.203 24.4219 86.5155 24.3651C86.828 24.3083 87.0648 24.2657 87.2257 24.2373L87.453 29.2515C87.0837 29.3556 86.5865 29.474 85.9615 29.6066C85.346 29.7486 84.6263 29.8386 83.8025 29.8765C82.1358 29.9428 80.7579 29.7486 79.6689 29.2941C78.5894 28.8301 77.8271 28.1104 77.382 27.135C76.9464 26.1596 76.8612 24.938 77.1263 23.4702L80.5922 2.51851ZM93.7276 29.9759C92.6954 29.9759 91.8526 29.616 91.1992 28.8964C90.5458 28.1767 90.2617 27.3054 90.3469 26.2827C90.4416 25.2789 90.8867 24.4219 91.6822 23.7117C92.4776 23.0015 93.3867 22.6464 94.4094 22.6464C95.3848 22.6464 96.204 23.0015 96.8668 23.7117C97.5392 24.4219 97.828 25.2789 97.7333 26.2827C97.6765 26.9645 97.4445 27.5848 97.0373 28.1435C96.6396 28.7022 96.1471 29.1473 95.56 29.4787C94.9729 29.8102 94.3621 29.9759 93.7276 29.9759ZM96.2134 15.0043C95.1812 15.0043 94.3384 14.6492 93.685 13.939C93.0316 13.2193 92.7475 12.3433 92.8327 11.3111C92.9274 10.3073 93.3725 9.45033 94.168 8.7401C94.9634 8.02987 95.8725 7.67476 96.8952 7.67476C97.8801 7.67476 98.704 8.03461 99.3668 8.7543C100.03 9.46453 100.314 10.3168 100.219 11.3111C100.162 12.0024 99.935 12.6274 99.5373 13.1861C99.1396 13.7448 98.6424 14.1899 98.0458 14.5214C97.4587 14.8433 96.8479 15.0043 96.2134 15.0043ZM122.396 14.4077L116.131 14.5782C116.141 14.1142 116.037 13.707 115.819 13.3566C115.601 12.9967 115.293 12.7174 114.896 12.5185C114.498 12.3196 114.024 12.2202 113.475 12.2202C112.585 12.2202 111.785 12.4191 111.075 12.8168C110.374 13.2145 109.981 13.7306 109.896 14.3651C109.829 14.706 109.924 15.0043 110.18 15.26C110.435 15.5062 111.004 15.724 111.884 15.9134L115.975 16.7089C118.078 17.1255 119.602 17.8499 120.549 18.8821C121.506 19.9049 121.846 21.259 121.572 22.9446C121.326 24.384 120.691 25.6293 119.668 26.6804C118.655 27.7316 117.363 28.546 115.791 29.1236C114.228 29.6918 112.5 29.9759 110.606 29.9759C107.405 29.9759 104.99 29.332 103.362 28.0441C101.742 26.7467 100.985 25.028 101.089 22.8878L107.85 22.7174C107.879 23.5223 108.149 24.1284 108.66 24.5356C109.181 24.9333 109.886 25.1416 110.776 25.1606C111.752 25.1795 112.595 24.9759 113.305 24.5498C114.015 24.1236 114.413 23.5981 114.498 22.9731C114.555 22.5659 114.417 22.2486 114.086 22.0214C113.764 21.7941 113.163 21.5905 112.282 21.4106L108.589 20.6861C106.468 20.2789 104.934 19.5119 103.987 18.385C103.049 17.2486 102.727 15.7998 103.021 14.0384C103.267 12.6369 103.845 11.4484 104.754 10.4731C105.672 9.48821 106.87 8.7401 108.347 8.22874C109.834 7.71737 111.529 7.46169 113.433 7.46169C116.482 7.46169 118.783 8.08196 120.336 9.32249C121.899 10.5535 122.585 12.2486 122.396 14.4077Z" fill="#171717"/>
</svg>
