<svg width="25" height="25" viewBox="0 0 25 25" fill="none" xmlns="http://www.w3.org/2000/svg">
<g clip-path="url(#clip0_630_692)">
<path fill-rule="evenodd" clip-rule="evenodd" d="M7.86157 11.711C8.35403 11.711 8.84166 11.614 9.29664 11.4255C9.75161 11.2371 10.165 10.9608 10.5132 10.6126C10.8614 10.2644 11.1377 9.851 11.3261 9.39603C11.5146 8.94106 11.6116 8.45342 11.6116 7.96097C11.6116 7.46851 11.5146 6.98088 11.3261 6.52591C11.1377 6.07093 10.8614 5.65754 10.5132 5.30932C10.165 4.9611 9.75161 4.68488 9.29664 4.49642C8.84166 4.30796 8.35403 4.21097 7.86157 4.21097C6.86701 4.21097 5.91318 4.60606 5.20992 5.30932C4.50666 6.01258 4.11157 6.96641 4.11157 7.96097C4.11157 8.95553 4.50666 9.90936 5.20992 10.6126C5.91318 11.3159 6.86701 11.711 7.86157 11.711ZM8.36157 17.892C8.36157 16.628 9.13257 14.757 10.8416 13.34C9.99857 13.043 9.01357 12.857 7.86157 12.857C2.82157 12.857 0.861572 16.295 0.861572 17.892C0.861572 19.492 5.03457 19.916 7.86157 19.916C8.33257 19.916 8.84157 19.903 9.36257 19.876C8.70157 19.349 8.36157 18.689 8.36157 17.892Z" fill="#D3D3D3" fill-opacity="0.72"/>
<path fill-rule="evenodd" clip-rule="evenodd" d="M16.8616 12.858C11.8216 12.858 9.86157 16.295 9.86157 17.893C9.86157 19.491 14.0346 19.917 16.8616 19.917C19.6886 19.917 23.8616 19.491 23.8616 17.893C23.8616 16.295 21.9016 12.858 16.8616 12.858ZM16.8616 11.711C17.354 11.711 17.8417 11.614 18.2966 11.4255C18.7516 11.2371 19.165 10.9608 19.5132 10.6126C19.8614 10.2644 20.1377 9.851 20.3261 9.39603C20.5146 8.94106 20.6116 8.45342 20.6116 7.96097C20.6116 7.46851 20.5146 6.98088 20.3261 6.52591C20.1377 6.07093 19.8614 5.65754 19.5132 5.30932C19.165 4.9611 18.7516 4.68488 18.2966 4.49642C17.8417 4.30796 17.354 4.21097 16.8616 4.21097C15.867 4.21097 14.9132 4.60606 14.2099 5.30932C13.5067 6.01258 13.1116 6.96641 13.1116 7.96097C13.1116 8.95553 13.5067 9.90936 14.2099 10.6126C14.9132 11.3159 15.867 11.711 16.8616 11.711Z" fill="#D3D3D3"/>
</g>
<defs>
<clipPath id="clip0_630_692">
<rect width="24" height="24" fill="white" transform="translate(0.361572 0.0639648)"/>
</clipPath>
</defs>
</svg>
