<svg width="892" height="74" viewBox="0 0 892 74" fill="none" xmlns="http://www.w3.org/2000/svg">
<rect width="892" height="74" rx="12" transform="matrix(1 0 0 -1 0 74)" fill="#FB1E53"/>
<path d="M386.906 32.6406C386.898 33.8203 387.098 34.9805 387.504 36.1211C387.91 37.2539 388.516 38.2773 389.32 39.1914C390.125 40.0977 391.102 40.7891 392.25 41.2656L390.633 43.6094C389.414 43.0938 388.367 42.3398 387.492 41.3477C386.617 40.3477 385.93 39.1797 385.43 37.8438C384.93 39.2891 384.234 40.5625 383.344 41.6641C382.461 42.7578 381.406 43.5859 380.18 44.1484L378.469 41.7812C379.609 41.2734 380.582 40.5352 381.387 39.5664C382.199 38.5977 382.809 37.5117 383.215 36.3086C383.629 35.0977 383.836 33.875 383.836 32.6406V31.3281H379.312V28.8906H391.359V31.3281H386.906V32.6406ZM393.469 26.8281H396.492V48.1562H393.469V26.8281ZM417.445 42.9531H414.445V41.2656H410.367V39.2266H414.445V26.8516H417.445V42.9531ZM399.305 36.2969C401.984 36.2812 404.438 36.2344 406.664 36.1562C408.891 36.0703 411 35.9062 412.992 35.6641L413.156 37.7969C411.531 38.0703 409.812 38.2734 408 38.4062V42.4609H405V45.3906H417.914V47.7812H402.023V41.4062H405V38.582C403.516 38.6367 401.734 38.6641 399.656 38.6641L399.305 36.2969ZM400.875 31.3984C400.875 30.6484 401.102 29.9844 401.555 29.4062C402.008 28.8281 402.641 28.3789 403.453 28.0586C404.266 27.7383 405.195 27.5781 406.242 27.5781C407.266 27.5781 408.18 27.7383 408.984 28.0586C409.789 28.3789 410.418 28.8281 410.871 29.4062C411.332 29.9844 411.562 30.6484 411.562 31.3984C411.562 32.1484 411.332 32.8086 410.871 33.3789C410.418 33.9492 409.789 34.3867 408.984 34.6914C408.18 34.9961 407.266 35.1484 406.242 35.1484C405.188 35.1484 404.254 34.9961 403.441 34.6914C402.637 34.3867 402.008 33.9492 401.555 33.3789C401.102 32.8086 400.875 32.1484 400.875 31.3984ZM403.711 31.3984C403.703 31.9062 403.93 32.3008 404.391 32.582C404.859 32.8555 405.492 32.9922 406.289 32.9922C407.008 32.9922 407.59 32.8516 408.035 32.5703C408.488 32.2891 408.719 31.8984 408.727 31.3984C408.719 30.8828 408.484 30.4805 408.023 30.1914C407.57 29.9023 406.977 29.7578 406.242 29.7578C405.469 29.7578 404.852 29.9023 404.391 30.1914C403.93 30.4805 403.703 30.8828 403.711 31.3984ZM427.992 32.6406C427.984 33.7578 428.18 34.8789 428.578 36.0039C428.977 37.1289 429.566 38.1562 430.348 39.0859C431.137 40.0156 432.094 40.7422 433.219 41.2656L431.555 43.6094C430.406 43.0781 429.406 42.3086 428.555 41.3008C427.703 40.2852 427.027 39.1133 426.527 37.7852C426.035 39.2383 425.348 40.5234 424.465 41.6406C423.59 42.75 422.555 43.5859 421.359 44.1484L419.625 41.7812C420.766 41.25 421.738 40.4961 422.543 39.5195C423.348 38.543 423.953 37.457 424.359 36.2617C424.773 35.0586 424.984 33.8516 424.992 32.6406V31.3281H420.469V28.8906H432.281V31.3281H427.992V32.6406ZM433.945 26.8281H436.945V34.9609H440.086V37.4688H436.945V48.1562H433.945V26.8281ZM457.125 31.1406H450.422V40.6094C452.055 40.5938 453.469 40.5391 454.664 40.4453C455.867 40.3516 457.07 40.1953 458.273 39.9766L458.578 42.3906C457.273 42.6406 455.973 42.8125 454.676 42.9062C453.379 43 451.828 43.0469 450.023 43.0469H449.133H447.398V28.7031H457.125V31.1406ZM456.07 34.2109H461.438V26.8281H464.414V48.2031H461.438V36.6484H456.07V34.2109ZM492.188 45.6719H472.664V43.2344H480.891V39.2969H474.727V28.1875H477.727V31.4922H487.031V28.1875H490.008V39.2969H483.867V43.2344H492.188V45.6719ZM487.031 36.9062V33.8828H477.727V36.9062H487.031ZM511.336 48.1562H508.312V26.8281H511.336V48.1562ZM493.477 42.1094C495.297 41.25 496.797 40.293 497.977 39.2383C499.164 38.1836 500.07 37.0156 500.695 35.7344C501.328 34.4453 501.727 33 501.891 31.3984H494.625V29.0547H504.938C504.93 31.3359 504.621 33.4102 504.012 35.2773C503.402 37.1445 502.367 38.8594 500.906 40.4219C499.453 41.9844 497.5 43.3438 495.047 44.5L493.477 42.1094Z" fill="white"/>
</svg>
