<svg width="192" height="193" viewBox="0 0 192 193" fill="none" xmlns="http://www.w3.org/2000/svg">
<g clip-path="url(#clip0_520_564)">
<rect width="192" height="192" transform="translate(0 0.078125)" fill="#171717"/>
<path d="M32.5142 157.138C27.3532 157.138 23.1392 155.339 19.8722 151.74C16.6051 148.142 15.1847 143.786 15.6108 138.672C16.0843 133.653 18.3097 129.368 22.2869 125.817C26.2642 122.266 30.8097 120.49 35.9233 120.49C40.8002 120.49 44.8958 122.266 48.2102 125.817C51.572 129.368 53.0161 133.653 52.5426 138.672C52.2585 142.081 51.0985 145.182 49.0625 147.976C47.0739 150.769 44.6117 152.995 41.6761 154.652C38.7405 156.309 35.6866 157.138 32.5142 157.138ZM44.9432 82.2798C39.7822 82.2798 35.5682 80.5043 32.3011 76.9531C29.0341 73.3546 27.6136 68.9749 28.0398 63.8139C28.5133 58.795 30.7386 54.5099 34.7159 50.9588C38.6932 47.4077 43.2386 45.6321 48.3523 45.6321C53.2765 45.6321 57.3958 47.4313 60.7102 51.0298C64.0246 54.581 65.4451 58.8423 64.9716 63.8139C64.6875 67.2704 63.5511 70.3954 61.5625 73.1889C59.5739 75.9825 57.0881 78.2079 54.1051 79.8651C51.1695 81.4749 48.1155 82.2798 44.9432 82.2798ZM175.855 79.2969L144.534 80.1491C144.581 77.8291 144.06 75.7931 142.971 74.0412C141.882 72.2419 140.343 70.8452 138.355 69.8509C136.366 68.8565 133.998 68.3594 131.252 68.3594C126.802 68.3594 122.801 69.3537 119.249 71.3423C115.746 73.331 113.781 75.9115 113.355 79.0838C113.023 80.7884 113.497 82.2798 114.775 83.5582C116.053 84.7893 118.894 85.8783 123.298 86.8253L143.752 90.8026C154.264 92.8859 161.887 96.508 166.622 101.669C171.404 106.783 173.108 113.554 171.735 121.982C170.504 129.179 167.332 135.405 162.218 140.661C157.152 145.916 150.689 149.988 142.829 152.876C135.016 155.717 126.375 157.138 116.906 157.138C100.902 157.138 88.828 153.918 80.6841 147.479C72.5875 140.992 68.7996 132.398 69.3205 121.697L103.127 120.845C103.269 124.87 104.619 127.9 107.176 129.936C109.78 131.925 113.307 132.966 117.758 133.061C122.635 133.156 126.849 132.138 130.4 130.007C133.951 127.876 135.94 125.249 136.366 122.124C136.65 120.088 135.963 118.501 134.306 117.365C132.696 116.229 129.69 115.211 125.286 114.311L106.82 110.689C96.2144 108.653 88.5439 104.818 83.8091 99.1832C79.1216 93.5014 77.5117 86.2571 78.9795 77.4503C80.2106 70.4427 83.0989 64.5005 87.6443 59.6236C92.2371 54.6993 98.2267 50.9588 105.613 48.402C113.047 45.8452 121.522 44.5668 131.039 44.5668C146.285 44.5668 157.791 47.6681 165.556 53.8707C173.369 60.026 176.802 68.5014 175.855 79.2969Z" fill="#FB1E53"/>
</g>
<defs>
<clipPath id="clip0_520_564">
<rect width="192" height="192" fill="white" transform="translate(0 0.078125)"/>
</clipPath>
</defs>
</svg>
