<svg width="30" height="31" viewBox="0 0 30 31" fill="none" xmlns="http://www.w3.org/2000/svg">
<path fill-rule="evenodd" clip-rule="evenodd" d="M21.5088 13.332L14.5287 20.48C14.2943 20.72 13.9765 20.8548 13.645 20.8548C13.3135 20.8548 12.9957 20.72 12.7612 20.48L8.49125 16.1059C8.37519 15.9871 8.28313 15.846 8.22033 15.6907C8.15752 15.5354 8.12519 15.369 8.12519 15.2009C8.12519 15.0328 8.15752 14.8664 8.22033 14.7111C8.28313 14.5558 8.37519 14.4147 8.49125 14.2959C8.60731 14.177 8.74508 14.0827 8.89672 14.0184C9.04835 13.9541 9.21087 13.921 9.375 13.921C9.53913 13.921 9.70165 13.9541 9.85328 14.0184C10.0049 14.0827 10.1427 14.177 10.2587 14.2959L13.645 17.7636L19.7412 11.5219C19.8573 11.4031 19.9951 11.3088 20.1467 11.2445C20.2984 11.1802 20.4609 11.1471 20.625 11.1471C20.7891 11.1471 20.9516 11.1802 21.1033 11.2445C21.2549 11.3088 21.3927 11.4031 21.5088 11.5219C21.6248 11.6408 21.7169 11.7819 21.7797 11.9372C21.8425 12.0924 21.8748 12.2589 21.8748 12.4269C21.8748 12.595 21.8425 12.7615 21.7797 12.9167C21.7169 13.072 21.6248 13.2131 21.5088 13.332ZM24.625 3.5841H22.5875V2.30401C22.5875 1.96451 22.4558 1.63892 22.2214 1.39885C21.987 1.15879 21.669 1.02393 21.3375 1.02393C21.006 1.02393 20.688 1.15879 20.4536 1.39885C20.2192 1.63892 20.0875 1.96451 20.0875 2.30401V3.5841H9.9125V2.30401C9.9125 1.96451 9.7808 1.63892 9.54638 1.39885C9.31196 1.15879 8.99402 1.02393 8.6625 1.02393C8.33098 1.02393 8.01304 1.15879 7.77862 1.39885C7.5442 1.63892 7.4125 1.96451 7.4125 2.30401V3.5841H5.375C4.71196 3.5841 4.07607 3.85383 3.60723 4.33396C3.13839 4.81409 2.875 5.46528 2.875 6.14428V25.8576C2.875 26.5366 3.13839 27.1878 3.60723 27.6679C4.07607 28.1481 4.71196 28.4178 5.375 28.4178H24.625C25.288 28.4178 25.9239 28.1481 26.3928 27.6679C26.8616 27.1878 27.125 26.5366 27.125 25.8576V6.14428C27.125 5.46528 26.8616 4.81409 26.3928 4.33396C25.9239 3.85383 25.288 3.5841 24.625 3.5841Z" fill="#333333"/>
</svg>
