<svg width="20" height="20" viewBox="0 0 20 20" fill="none" xmlns="http://www.w3.org/2000/svg">
<path fill-rule="evenodd" clip-rule="evenodd" d="M18.3178 8.65996H11.3178V1.65996C11.3178 1.3417 11.1913 1.03648 10.9663 0.811433C10.7413 0.586389 10.436 0.459961 10.1178 0.459961C9.79951 0.459961 9.49429 0.586389 9.26925 0.811433C9.0442 1.03648 8.91777 1.3417 8.91777 1.65996V8.65996H1.91777C1.59951 8.65996 1.29429 8.78639 1.06925 9.01143C0.844202 9.23648 0.717773 9.5417 0.717773 9.85996C0.717773 10.1782 0.844202 10.4834 1.06925 10.7085C1.29429 10.9335 1.59951 11.06 1.91777 11.06H8.91777V18.06C8.91777 18.3782 9.0442 18.6834 9.26925 18.9085C9.49429 19.1335 9.79951 19.26 10.1178 19.26C10.436 19.26 10.7413 19.1335 10.9663 18.9085C11.1913 18.6834 11.3178 18.3782 11.3178 18.06V11.06H18.3178C18.636 11.06 18.9413 10.9335 19.1663 10.7085C19.3913 10.4834 19.5178 10.1782 19.5178 9.85996C19.5178 9.5417 19.3913 9.23648 19.1663 9.01143C18.9413 8.78639 18.636 8.65996 18.3178 8.65996Z" fill="#333333"/>
</svg>
